<svg width="24" height="24" viewBox="0 0 24 24" fill="none" xmlns="http://www.w3.org/2000/svg">
<g id="bath 1" clip-path="url(#clip0_231_5924)">
<g id="Group">
<path id="Vector" opacity="0.962" fill-rule="evenodd" clip-rule="evenodd" d="M5.36837 2.69519C7.22565 2.59171 8.28812 3.4589 8.55587 5.29676C8.43179 5.99163 8.04113 6.21035 7.38399 5.95301C7.26183 5.86216 7.17591 5.74498 7.12618 5.60144C7.06632 4.49385 6.49604 4.03291 5.41524 4.21863C5.04057 4.37455 4.79841 4.64798 4.68868 5.03894C4.65743 6.03893 4.65743 7.03896 4.68868 8.03894C5.0484 7.58744 5.47805 7.50152 5.97774 7.78113C6.24666 8.10602 6.26227 8.43415 6.02462 8.76551C4.61837 8.79677 3.21212 8.79677 1.80587 8.76551C1.5734 8.35694 1.6359 7.99755 1.99337 7.68738C2.20786 7.61819 2.42661 7.60254 2.64962 7.64051C2.85661 7.75357 3.0363 7.90198 3.18868 8.08582C3.2043 7.00769 3.21993 5.92957 3.23555 4.85144C3.51749 3.70235 4.22843 2.98359 5.36837 2.69519Z" fill="#421808"/>
</g>
<g id="Group_2">
<path id="Vector_2" opacity="0.995" fill-rule="evenodd" clip-rule="evenodd" d="M23.9766 10.6173C23.9766 10.8048 23.9766 10.9923 23.9766 11.1798C23.8943 11.3197 23.7849 11.4369 23.6484 11.5314C23.4277 11.5663 23.2168 11.621 23.0156 11.6954C22.6562 13.0548 22.2969 14.4142 21.9375 15.7735C21.4523 17.4256 20.4289 18.6053 18.8672 19.3126C19.0604 19.5841 19.2713 19.8419 19.5 20.086C19.7498 20.5648 19.6483 20.9476 19.1953 21.2345C18.9709 21.2757 18.7522 21.26 18.5391 21.1876C18.1152 20.7169 17.7089 20.2326 17.3203 19.7345C13.7577 19.6954 10.1952 19.7032 6.63281 19.7579C6.26456 20.1964 5.90517 20.6417 5.55469 21.0939C5.12358 21.3569 4.74075 21.3022 4.40625 20.9298C4.33704 20.7153 4.32142 20.4965 4.35938 20.2735C4.57468 19.941 4.81687 19.6284 5.08594 19.336C3.52852 18.6137 2.50508 17.4262 2.01562 15.7735C1.66356 14.4122 1.30418 13.0528 0.9375 11.6954C0.736369 11.621 0.525431 11.5663 0.304688 11.5314C0.168201 11.4369 0.0588258 11.3197 -0.0234375 11.1798C-0.0234375 10.9923 -0.0234375 10.8048 -0.0234375 10.6173C0.0616317 10.4308 0.202257 10.298 0.398438 10.2189C8.1172 10.1876 15.8359 10.1876 23.5547 10.2189C23.7509 10.298 23.8915 10.4308 23.9766 10.6173Z" fill="#421808"/>
</g>
</g>
<defs>
<clipPath id="clip0_231_5924">
<rect width="24" height="24" fill="white"/>
</clipPath>
</defs>
</svg>
