<svg width="20" height="20" viewBox="0 0 20 20" fill="none" xmlns="http://www.w3.org/2000/svg">
<g id="tabler:bulb-filled">
<path id="Vector" d="M3.33371 9.16666C3.54611 9.1669 3.75041 9.24823 3.90485 9.39404C4.0593 9.53984 4.15224 9.73913 4.16469 9.95116C4.17714 10.1632 4.10815 10.372 3.97182 10.5349C3.8355 10.6977 3.64213 10.8024 3.43121 10.8275L3.33371 10.8333H2.50038C2.28798 10.8331 2.08369 10.7518 1.92924 10.606C1.77479 10.4601 1.68185 10.2609 1.6694 10.0488C1.65695 9.8368 1.72594 9.62801 1.86227 9.46514C1.99859 9.30226 2.19197 9.19758 2.40288 9.1725L2.50038 9.16666H3.33371ZM10.0004 1.66666C10.2045 1.66669 10.4015 1.74163 10.554 1.87726C10.7066 2.01289 10.804 2.19979 10.8279 2.4025L10.8337 2.5V3.33333C10.8335 3.54573 10.7521 3.75002 10.6063 3.90447C10.4605 4.05892 10.2613 4.15186 10.0492 4.16431C9.83718 4.17675 9.6284 4.10777 9.46552 3.97144C9.30264 3.83512 9.19796 3.64174 9.17288 3.43083L9.16705 3.33333V2.5C9.16705 2.27898 9.25484 2.06702 9.41112 1.91074C9.5674 1.75446 9.77936 1.66666 10.0004 1.66666ZM17.5004 9.16666C17.7128 9.1669 17.9171 9.24823 18.0715 9.39404C18.226 9.53984 18.3189 9.73913 18.3314 9.95116C18.3438 10.1632 18.2748 10.372 18.1385 10.5349C18.0022 10.6977 17.8088 10.8024 17.5979 10.8275L17.5004 10.8333H16.667C16.4546 10.8331 16.2504 10.7518 16.0959 10.606C15.9415 10.4601 15.8485 10.2609 15.8361 10.0488C15.8236 9.8368 15.8926 9.62801 16.0289 9.46514C16.1653 9.30226 16.3586 9.19758 16.5695 9.1725L16.667 9.16666H17.5004ZM4.07788 4.0775C4.22137 3.93402 4.41229 3.84782 4.61481 3.83509C4.81733 3.82236 5.01754 3.88395 5.17788 4.00833L5.25621 4.0775L5.83955 4.66083C5.989 4.8108 6.07577 5.01203 6.08224 5.22365C6.0887 5.43528 6.01437 5.64142 5.87434 5.80023C5.73431 5.95903 5.53909 6.05859 5.32832 6.07866C5.11755 6.09874 4.90704 6.03784 4.73955 5.90833L4.66121 5.83916L4.07788 5.25583C3.92165 5.09956 3.83389 4.88763 3.83389 4.66666C3.83389 4.44569 3.92165 4.23377 4.07788 4.0775ZM14.7445 4.0775C14.8945 3.92804 15.0957 3.84127 15.3074 3.83481C15.519 3.82835 15.7251 3.90268 15.8839 4.0427C16.0427 4.18273 16.1423 4.37796 16.1624 4.58873C16.1825 4.7995 16.1216 5.01 15.992 5.1775L15.9229 5.25583L15.3395 5.83916C15.1896 5.98862 14.9883 6.07539 14.7767 6.08185C14.5651 6.08832 14.3589 6.01398 14.2001 5.87396C14.0413 5.73393 13.9418 5.5387 13.9217 5.32794C13.9016 5.11717 13.9625 4.90666 14.092 4.73916L14.1612 4.66083L14.7445 4.0775ZM11.667 15C11.8881 15 12.1 15.0878 12.2563 15.2441C12.4126 15.4004 12.5004 15.6123 12.5004 15.8333C12.5004 16.4964 12.237 17.1323 11.7681 17.6011C11.2993 18.0699 10.6634 18.3333 10.0004 18.3333C9.33734 18.3333 8.70145 18.0699 8.23261 17.6011C7.76377 17.1323 7.50038 16.4964 7.50038 15.8333C7.50041 15.6292 7.57534 15.4322 7.71097 15.2797C7.84661 15.1272 8.0335 15.0297 8.23621 15.0058L8.33371 15H11.667ZM10.0004 5C11.0498 5 12.0726 5.33018 12.9239 5.94379C13.7753 6.55739 14.4119 7.4233 14.7438 8.41886C15.0756 9.41442 15.0858 10.4892 14.7729 11.4908C14.46 12.4925 13.8399 13.3703 13.0004 14C12.8855 14.0863 12.7503 14.1414 12.6079 14.16L12.5004 14.1667H7.50038C7.32007 14.1667 7.14463 14.1082 7.00038 14C6.16085 13.3703 5.54071 12.4925 5.22781 11.4908C4.91491 10.4892 4.92511 9.41442 5.25696 8.41886C5.58882 7.4233 6.2255 6.55739 7.07683 5.94379C7.92815 5.33018 8.95097 5 10.0004 5Z" fill="#F78118"/>
</g>
</svg>
