<svg width="32" height="32" viewBox="0 0 32 32" fill="none" xmlns="http://www.w3.org/2000/svg">
<rect width="32" height="32" fill="#EBEBEB"/>
<g clip-path="url(#clip0_231_4848)">
<rect width="1440" height="8970" transform="translate(-165 -8632)" fill="white"/>
<g clip-path="url(#clip1_231_4848)">
<rect width="1440" height="974" transform="translate(-165 -636)" fill="white"/>
<rect x="-165" y="-636" width="1440" height="974" fill="#FAAA55"/>
<path d="M-104 100C-104 116.802 -104 125.202 -100.73 131.62C-97.854 137.265 -93.2646 141.854 -87.6197 144.73C-81.2024 148 -72.8016 148 -56 148H1127.06C1155.14 148 1169.18 148 1177.13 142.119C1184.06 136.992 1188.45 129.131 1189.18 120.541C1190.02 110.687 1182.66 98.7341 1167.93 74.8274L915.93 -334.318C911.37 -341.722 909.09 -345.424 906.032 -348.236C903.324 -350.727 900.18 -352.698 896.758 -354.051C892.895 -355.579 888.57 -356.019 879.919 -356.899L-51.1417 -451.622C-69.4544 -453.485 -78.6108 -454.417 -85.6899 -451.422C-91.908 -448.791 -97.0568 -444.139 -100.304 -438.219C-104 -431.48 -104 -422.276 -104 -403.869V100Z" fill="white"/>
<g clip-path="url(#clip2_231_4848)">
<path d="M29.3324 7.33203H11.999C10.5324 7.33203 9.33236 8.53203 9.33236 9.9987V21.9987C9.33236 22.7059 9.61331 23.3842 10.1134 23.8843C10.6135 24.3844 11.2918 24.6654 11.999 24.6654H29.3324C30.8124 24.6654 31.999 23.4787 31.999 21.9987V9.9987C31.999 9.29145 31.7181 8.61318 31.218 8.11308C30.7179 7.61298 30.0396 7.33203 29.3324 7.33203ZM29.3324 12.2254L20.6657 16.6654L11.999 12.2254V9.9987L20.6657 14.412L29.3324 9.9987V12.2254ZM6.66569 21.9987C6.66569 22.2254 6.70569 22.4387 6.73236 22.6654H1.33236C0.596357 22.6654 -0.000976562 22.0654 -0.000976562 21.332C-0.000976562 20.5987 0.596357 19.9987 1.33236 19.9987H6.66569V21.9987ZM3.99902 9.33203H6.73236C6.70569 9.5587 6.66569 9.77203 6.66569 9.9987V11.9987H3.99902C3.26569 11.9987 2.66569 11.3987 2.66569 10.6654C2.66569 9.93203 3.26569 9.33203 3.99902 9.33203ZM1.33236 15.9987C1.33236 15.2654 1.93236 14.6654 2.66569 14.6654H6.66569V17.332H2.66569C1.93236 17.332 1.33236 16.732 1.33236 15.9987Z" fill="#0F172A"/>
</g>
</g>
</g>
<defs>
<clipPath id="clip0_231_4848">
<rect width="1440" height="8970" fill="white" transform="translate(-165 -8632)"/>
</clipPath>
<clipPath id="clip1_231_4848">
<rect width="1440" height="974" fill="white" transform="translate(-165 -636)"/>
</clipPath>
<clipPath id="clip2_231_4848">
<rect width="32" height="32" fill="white"/>
</clipPath>
</defs>
</svg>
