<svg width="65" height="34" viewBox="0 0 65 34" fill="none" xmlns="http://www.w3.org/2000/svg">
<g id="RUJ-logo 1" clip-path="url(#clip0_351_1001)">
<g id="Layer_x0020_1">
<path id="Vector" d="M50.9048 0.398712V1.13984C50.1637 1.28807 49.5957 1.54746 49.2003 1.91801C48.8298 2.28859 48.5827 2.86913 48.4592 3.65969C48.3357 4.42552 48.274 5.51251 48.274 6.92067V15.8513C48.274 17.383 48.1626 18.8282 47.9404 20.187C47.7429 21.5457 47.3475 22.7191 46.7547 23.7073C46.1124 24.7696 45.1486 25.6096 43.8643 26.2272C42.6043 26.8448 40.912 27.1536 38.7874 27.1536C37.651 27.1536 36.4528 27.0301 35.1928 26.783C33.9329 26.536 32.8089 26.0666 31.8208 25.3749C30.9808 24.7573 30.3385 24.0038 29.8938 23.1145C29.4492 22.2251 29.1527 21.1875 29.0045 20.0017C28.8562 18.8159 28.7821 17.4695 28.7821 15.9625V4.32673C28.7821 3.41267 28.7204 2.74564 28.5968 2.32569C28.4733 1.88101 28.2263 1.58456 27.8557 1.43633C27.4852 1.2634 26.917 1.16458 26.1511 1.13988V0.398744C26.8676 0.423443 27.8063 0.448142 28.9674 0.472841C30.1532 0.49754 31.3884 0.509906 32.6731 0.509906C33.9577 0.509906 35.1929 0.49754 36.3788 0.472841C37.5645 0.448142 38.5404 0.423443 39.3063 0.398744V1.13988C38.4664 1.16458 37.8241 1.2634 37.3792 1.43633C36.9595 1.58456 36.6751 1.88101 36.5272 2.32569C36.3789 2.74567 36.3046 3.41267 36.3046 4.32673V19.4458C36.3046 20.6563 36.4036 21.6816 36.6011 22.5215C36.7986 23.3368 37.083 23.9914 37.4536 24.4855C37.8485 24.9796 38.3304 25.3378 38.8988 25.5602C39.4916 25.7578 40.171 25.8566 40.9368 25.8566C42.5918 25.8566 43.8891 25.4614 44.8277 24.6708C45.7666 23.8556 46.4334 22.7315 46.8288 21.2986C47.2241 19.8411 47.4216 18.1612 47.4216 16.2589V7.66181C47.4216 6.00662 47.3476 4.74671 47.1993 3.88202C47.0758 2.99266 46.7548 2.35032 46.2359 1.95507C45.7171 1.55979 44.8647 1.28804 43.6791 1.13984V0.398712C44.1731 0.423411 44.8155 0.44811 45.6058 0.47281C46.3965 0.497509 47.1376 0.509874 47.8291 0.509874C48.3975 0.509874 48.9534 0.497509 49.497 0.47281C50.065 0.44811 50.5344 0.423411 50.9049 0.398712L50.9048 0.398712Z" fill="#430F39"/>
<path id="Vector_2" d="M7.74501 13.5538C8.63437 13.5785 9.47433 13.6279 10.2649 13.702C11.0554 13.7761 11.7842 13.8503 12.4512 13.9244C13.1182 13.9738 13.6864 14.0108 14.1558 14.0355C16.7992 14.159 18.7755 14.6161 20.0848 15.4066C21.4189 16.1971 22.2341 17.3583 22.5306 18.8899L23.3088 22.7438C23.5064 23.6579 23.7287 24.2879 23.9758 24.6337C24.2229 24.9796 24.5564 25.1525 24.9763 25.1525C25.2234 25.1525 25.4334 25.1154 25.6063 25.0413C25.7792 24.9672 25.9522 24.8437 26.1251 24.6708L26.6068 25.1525C25.841 25.9183 25.001 26.4371 24.087 26.7089C23.1976 27.0053 22.1847 27.1536 21.0483 27.1536C19.4426 27.1536 18.1456 26.8695 17.1574 26.3012C16.1692 25.7084 15.564 24.6584 15.3416 23.1515L14.7858 19.4458C14.6376 18.4329 14.4523 17.5312 14.2299 16.7406C14.0076 15.9501 13.7111 15.3325 13.3406 14.8878C12.97 14.4184 12.4636 14.1837 11.8213 14.1837H7.81914L7.74504 13.5538L7.74501 13.5538Z" fill="#E8670E"/>
<path id="Vector_3" d="M0.000175476 0.398713C0.716608 0.423412 1.65537 0.448112 2.81648 0.472811C4.00229 0.49751 5.1881 0.509875 6.37391 0.509875C7.60912 0.509875 8.79496 0.49751 9.93134 0.472811C11.0678 0.448112 11.8707 0.435746 12.34 0.435746C14.8599 0.435746 16.9351 0.670435 18.5655 1.13981C20.2207 1.60919 21.4559 2.32563 22.2712 3.28908C23.0865 4.22784 23.4941 5.42601 23.4941 6.88358C23.4941 7.79767 23.3088 8.68703 22.9382 9.55165C22.5677 10.4163 21.9377 11.2069 21.0483 11.9233C20.159 12.615 18.9361 13.1709 17.3797 13.5908C15.8481 13.9861 13.8964 14.1837 11.5248 14.1837H7.96734V13.4426H11.1542C12.4142 13.4426 13.3653 13.1708 14.0076 12.6273C14.6746 12.0592 15.1193 11.318 15.3416 10.4039C15.5887 9.46519 15.7122 8.42761 15.7122 7.29123C15.7122 5.33955 15.4404 3.83259 14.8969 2.7703C14.3782 1.68332 13.4641 1.13981 12.1548 1.13981C11.3148 1.13981 10.7713 1.3498 10.5243 1.76978C10.2772 2.18976 10.1537 3.04206 10.1537 4.32667V22.7067C10.1537 23.5961 10.2155 24.2631 10.339 24.7078C10.4872 25.1525 10.7466 25.449 11.1172 25.5972C11.4877 25.7454 12.0436 25.8442 12.7847 25.8936V26.6348C12.0683 26.5853 11.1419 26.5606 10.0055 26.5606C8.89379 26.5359 7.75738 26.5236 6.59627 26.5236C5.26223 26.5236 4.00232 26.5359 2.81651 26.5606C1.6554 26.5606 0.71664 26.5853 0.000207182 26.6348V25.8936C0.766038 25.8442 1.33424 25.7454 1.7048 25.5972C2.07535 25.4489 2.3224 25.1525 2.44593 24.7078C2.56945 24.2632 2.63122 23.5961 2.63122 22.7067V4.32667C2.63122 3.41261 2.56945 2.74557 2.44593 2.32563C2.3224 1.88095 2.06301 1.58449 1.66773 1.43627C1.29718 1.26334 0.741308 1.16451 0.000175476 1.13981V0.398682L0.000175476 0.398713Z" fill="#E8670E"/>
<path id="Vector_4" d="M50.4365 33.6013V32.8232C51.3259 32.6997 52.104 32.4033 52.7712 31.9339C53.438 31.4892 53.9446 30.6863 54.2904 29.5252C54.6609 28.3888 54.8462 26.7459 54.8462 24.5967V4.3267C54.8462 3.41264 54.7844 2.7456 54.6609 2.32566C54.5374 1.88098 54.2781 1.58452 53.8828 1.4363C53.5123 1.26337 52.9564 1.16454 52.2153 1.13984V0.398712C52.8821 0.423411 53.7715 0.44811 54.8832 0.47281C55.9949 0.497509 57.1686 0.509874 58.4038 0.509874C59.639 0.509874 60.8494 0.497509 62.0354 0.47281C63.2458 0.44811 64.234 0.423411 64.9998 0.398712V1.13984C64.2587 1.16454 63.6903 1.26337 63.295 1.4363C62.9245 1.58452 62.6774 1.88098 62.5539 2.32566C62.4304 2.74564 62.3686 3.41264 62.3686 4.3267V17.8894C62.3686 18.9023 62.3686 20.0016 62.3686 21.1874C62.3934 22.3486 62.3564 23.485 62.2577 24.5967C62.1833 25.7083 62.0106 26.6965 61.7388 27.5611C61.1952 29.2658 59.997 30.6986 58.1442 31.8597C56.2914 33.0208 53.7223 33.6013 50.4365 33.6013V33.6013Z" fill="#430F39"/>
</g>
</g>
<defs>
<clipPath id="clip0_351_1001">
<rect width="65" height="33.2026" fill="white" transform="translate(0 0.398712)"/>
</clipPath>
</defs>
</svg>
