<svg width="25" height="24" viewBox="0 0 25 24" fill="none" xmlns="http://www.w3.org/2000/svg">
<g id="vision 1" clip-path="url(#clip0_231_5657)">
<g id="Group">
<path id="Vector" fill-rule="evenodd" clip-rule="evenodd" d="M0.643188 1.42981C2.04944 1.42981 3.45569 1.42981 4.86194 1.42981C4.86194 1.89856 4.86194 2.36731 4.86194 2.83606C3.92444 2.83606 2.98694 2.83606 2.04944 2.83606C2.04944 3.77356 2.04944 4.71106 2.04944 5.64856C1.58069 5.64856 1.11194 5.64856 0.643188 5.64856C0.643188 4.24231 0.643188 2.83606 0.643188 1.42981Z" fill="#0F172A"/>
</g>
<g id="Group_2">
<path id="Vector_2" fill-rule="evenodd" clip-rule="evenodd" d="M24.6432 1.42981C24.6432 2.83606 24.6432 4.24231 24.6432 5.64856C24.1744 5.64856 23.7057 5.64856 23.2369 5.64856C23.2369 4.71106 23.2369 3.77356 23.2369 2.83606C22.2994 2.83606 21.3619 2.83606 20.4244 2.83606C20.4244 2.36731 20.4244 1.89856 20.4244 1.42981C21.8307 1.42981 23.2369 1.42981 24.6432 1.42981Z" fill="#0F172A"/>
</g>
<g id="Group_3">
<path id="Vector_3" opacity="0.961" fill-rule="evenodd" clip-rule="evenodd" d="M24.6432 11.9301C24.6432 11.9613 24.6432 11.9926 24.6432 12.0238C22.6534 14.9434 20.0753 17.1856 16.9088 18.7504C13.8575 20.0998 10.8419 20.0216 7.86194 18.516C4.91781 16.9549 2.51156 14.7909 0.643188 12.0238C0.643188 11.9926 0.643188 11.9613 0.643188 11.9301C2.633 9.01051 5.21113 6.76834 8.37756 5.20351C11.3902 3.8679 14.3746 3.9304 17.3307 5.39101C20.3192 6.94956 22.7567 9.12924 24.6432 11.9301ZM12.5963 5.64882C14.4412 5.74032 16.1443 6.27939 17.7057 7.26601C19.698 8.51584 21.4011 10.0862 22.8151 11.9769C21.2525 14.032 19.3619 15.7117 17.1432 17.016C14.4129 18.5701 11.6317 18.6794 8.79944 17.3441C6.27452 16.0415 4.16512 14.2446 2.47131 11.9535C4.04318 9.91238 5.93383 8.24054 8.14319 6.93789C9.53402 6.15887 11.0184 5.72917 12.5963 5.64882ZM12.5963 8.46132C14.1119 8.5426 15.1979 9.26134 15.8541 10.6176C16.4345 12.2573 16.0673 13.6401 14.7526 14.766C13.3463 15.7348 11.9401 15.7348 10.5338 14.766C9.06536 13.4547 8.77628 11.9156 9.66663 10.1488C10.3665 9.10745 11.343 8.54495 12.5963 8.46132ZM12.4088 11.3207C13.0722 11.2575 13.3613 11.5544 13.276 12.2113C13.0011 12.6682 12.6339 12.7541 12.1744 12.4691C11.8653 12.001 11.9435 11.6183 12.4088 11.3207Z" fill="#0F172A"/>
</g>
<g id="Group_4">
<path id="Vector_4" opacity="0.962" fill-rule="evenodd" clip-rule="evenodd" d="M11.9401 7.05483C14.3843 6.87399 16.1421 7.87397 17.2135 10.0548C17.9185 11.9812 17.6216 13.7312 16.3229 15.3048C14.6868 16.9226 12.7883 17.3211 10.6276 16.5001C8.74441 15.5865 7.77564 14.0787 7.72131 11.9767C7.79116 9.83761 8.79114 8.31417 10.7213 7.40639C11.1252 7.25878 11.5315 7.1416 11.9401 7.05483ZM12.5963 8.46108C11.343 8.5447 10.3665 9.1072 9.66663 10.1486C8.77628 11.9154 9.06536 13.4544 10.5338 14.7658C11.9401 15.7345 13.3463 15.7345 14.7526 14.7658C16.0673 13.6398 16.4345 12.257 15.8541 10.6173C15.1979 9.2611 14.1119 8.54236 12.5963 8.46108ZM12.4088 11.3205C11.9435 11.618 11.8653 12.0008 12.1744 12.4689C12.6339 12.7539 13.0011 12.6679 13.276 12.2111C13.3613 11.5541 13.0722 11.2572 12.4088 11.3205Z" fill="#0F172A"/>
</g>
<g id="Group_5">
<path id="Vector_5" opacity="0.962" fill-rule="evenodd" clip-rule="evenodd" d="M12.1744 9.86752C13.2663 9.72202 14.0709 10.1282 14.5885 11.0863C14.9648 12.0728 14.7695 12.9243 14.0025 13.641C13.2286 14.161 12.4161 14.2235 11.565 13.8285C10.5063 13.0705 10.2485 12.0939 10.7916 10.8988C11.1278 10.3823 11.5887 10.0385 12.1744 9.86752ZM12.4088 11.3206C11.9434 11.6182 11.8653 12.001 12.1744 12.4691C12.6338 12.7541 13.001 12.6681 13.276 12.2113C13.3612 11.5543 13.0721 11.2574 12.4088 11.3206Z" fill="#0F172A"/>
</g>
<g id="Group_6">
<path id="Vector_6" fill-rule="evenodd" clip-rule="evenodd" d="M0.643188 18.3048C1.11194 18.3048 1.58069 18.3048 2.04944 18.3048C2.04944 19.2423 2.04944 20.1798 2.04944 21.1173C2.98694 21.1173 3.92444 21.1173 4.86194 21.1173C4.86194 21.5861 4.86194 22.0548 4.86194 22.5236C3.45569 22.5236 2.04944 22.5236 0.643188 22.5236C0.643188 21.1173 0.643188 19.7111 0.643188 18.3048Z" fill="#0F172A"/>
</g>
<g id="Group_7">
<path id="Vector_7" fill-rule="evenodd" clip-rule="evenodd" d="M24.6432 18.3048C24.6432 19.7111 24.6432 21.1173 24.6432 22.5236C23.2369 22.5236 21.8307 22.5236 20.4244 22.5236C20.4244 22.0548 20.4244 21.5861 20.4244 21.1173C21.3619 21.1173 22.2994 21.1173 23.2369 21.1173C23.2369 20.1798 23.2369 19.2423 23.2369 18.3048C23.7057 18.3048 24.1744 18.3048 24.6432 18.3048Z" fill="#0F172A"/>
</g>
</g>
<defs>
<clipPath id="clip0_231_5657">
<rect width="24" height="24" fill="white" transform="translate(0.666626)"/>
</clipPath>
</defs>
</svg>
