<svg width="25" height="25" viewBox="0 0 25 25" fill="none" xmlns="http://www.w3.org/2000/svg">
<g id="laundry (1) 1" clip-path="url(#clip0_231_5710)">
<g id="Group">
<path id="Vector" opacity="0.967" fill-rule="evenodd" clip-rule="evenodd" d="M3.07568 -0.0235596C9.23192 -0.0235596 15.3882 -0.0235596 21.5444 -0.0235596C22.3836 0.198445 22.9227 0.729694 23.1616 1.57019C23.2157 5.04569 23.2392 8.52222 23.2319 11.9999C23.2392 15.4775 23.2157 18.9541 23.1616 22.4296C22.9227 23.2701 22.3836 23.8013 21.5444 24.0233C15.3882 24.0233 9.23192 24.0233 3.07568 24.0233C2.40454 23.8133 1.91236 23.3914 1.59912 22.7577C1.51768 22.5626 1.4708 22.3595 1.4585 22.1483C1.42725 15.3827 1.42725 8.61705 1.4585 1.85144C1.52381 1.21266 1.81287 0.704845 2.32568 0.328003C2.56489 0.178437 2.81489 0.061249 3.07568 -0.0235596ZM3.40381 1.38269C9.35693 1.37488 15.3101 1.38269 21.2632 1.40613C21.521 1.47644 21.6851 1.6405 21.7554 1.89832C21.7788 2.86694 21.7866 3.83569 21.7788 4.80457C15.4819 4.80457 9.18504 4.80457 2.88818 4.80457C2.88038 3.82007 2.88818 2.83569 2.91162 1.85144C3.01034 1.61975 3.1744 1.4635 3.40381 1.38269ZM2.88818 6.25769C9.18504 6.25769 15.4819 6.25769 21.7788 6.25769C21.7866 11.539 21.7788 16.8202 21.7554 22.1014C21.6851 22.3593 21.521 22.5233 21.2632 22.5936C15.3101 22.6249 9.35693 22.6249 3.40381 22.5936C3.166 22.5277 3.00194 22.3793 2.91162 22.1483C2.88818 16.8514 2.88037 11.5546 2.88818 6.25769ZM12.1694 9.11707C14.9507 9.25066 16.732 10.6491 17.5132 13.3124C17.0202 13.4964 16.5515 13.7307 16.1069 14.0155C15.5913 14.2343 15.0757 14.2343 14.5601 14.0155C14.2313 13.8042 13.8875 13.6167 13.5288 13.453C12.6031 13.1378 11.6968 13.1847 10.8101 13.5936C10.3775 13.9358 9.88531 14.1311 9.3335 14.1796C9.10381 14.1582 8.87726 14.1191 8.65381 14.0624C8.16936 13.7655 7.66934 13.5077 7.15381 13.2889C7.88557 10.7601 9.55742 9.36944 12.1694 9.11707ZM11.9351 14.6952C12.2011 14.6874 12.4668 14.6952 12.7319 14.7186C13.2221 14.9403 13.7064 15.1746 14.1851 15.4218C14.8334 15.6002 15.4897 15.6314 16.1538 15.5155C16.6705 15.3704 17.147 15.1439 17.5835 14.8358C17.4053 16.6846 16.5225 18.083 14.9351 19.0311C12.8956 20.0571 10.9424 19.9165 9.07568 18.6093C7.88637 17.6291 7.22234 16.3713 7.0835 14.8358C8.1162 15.5986 9.24898 15.7938 10.4819 15.4218C10.9595 15.1517 11.4439 14.9096 11.9351 14.6952Z" fill="#0F172A"/>
</g>
<g id="Group_2">
<path id="Vector_2" opacity="0.939" fill-rule="evenodd" clip-rule="evenodd" d="M15.4508 2.36706C15.9822 2.35926 16.5135 2.36707 17.0445 2.3905C17.5448 2.51723 17.7401 2.83754 17.6304 3.35144C17.5401 3.58242 17.3761 3.73086 17.1383 3.79675C16.5601 3.828 15.982 3.828 15.4039 3.79675C14.8801 3.58537 14.7317 3.21818 14.9586 2.69519C15.0852 2.51933 15.2492 2.40995 15.4508 2.36706Z" fill="#0F172A"/>
</g>
<g id="Group_3">
<path id="Vector_3" opacity="0.94" fill-rule="evenodd" clip-rule="evenodd" d="M19.1539 2.36706C19.6854 2.35926 20.2166 2.36707 20.7476 2.3905C21.3371 2.57897 21.5012 2.96179 21.2398 3.53894C21.1254 3.65465 20.9926 3.74059 20.8414 3.79675C20.2633 3.828 19.6851 3.828 19.107 3.79675C18.5833 3.58537 18.4348 3.21818 18.6617 2.69519C18.7883 2.51933 18.9524 2.40995 19.1539 2.36706Z" fill="#0F172A"/>
</g>
<g id="Group_4">
<path id="Vector_4" opacity="0.963" fill-rule="evenodd" clip-rule="evenodd" d="M11.6536 7.71112C14.4327 7.56548 16.5812 8.6436 18.0989 10.9455C19.3446 13.1932 19.3759 15.4588 18.1927 17.7424C16.554 20.3388 14.2024 21.4404 11.138 21.0471C8.54998 20.4903 6.80782 18.9668 5.91143 16.4767C5.17357 13.748 5.80638 11.3964 7.80987 9.42206C8.91991 8.46614 10.2011 7.89581 11.6536 7.71112ZM12.1692 9.11737C9.55723 9.36974 7.88538 10.7604 7.15362 13.2892C7.66915 13.508 8.16916 13.7658 8.65362 14.0627C8.87707 14.1194 9.10362 14.1585 9.3333 14.1799C9.88512 14.1314 10.3773 13.9361 10.8099 13.5939C11.6966 13.185 12.6029 13.1381 13.5286 13.4533C13.8874 13.617 14.2311 13.8045 14.5599 14.0158C15.0755 14.2346 15.5911 14.2346 16.1067 14.0158C16.5513 13.731 17.0201 13.4967 17.513 13.3127C16.7318 10.6494 14.9505 9.25096 12.1692 9.11737ZM11.9349 14.6955C11.4437 14.9099 10.9593 15.152 10.4817 15.4221C9.24879 15.7942 8.11601 15.5989 7.0833 14.8361C7.22215 16.3716 7.88618 17.6294 9.07549 18.6096C10.9422 19.9168 12.8954 20.0574 14.9349 19.0314C16.5223 18.0833 17.4051 16.6849 17.5833 14.8361C17.1469 15.1442 16.6703 15.3707 16.1536 15.5158C15.4895 15.6317 14.8332 15.6005 14.1849 15.4221C13.7062 15.1749 13.2219 14.9406 12.7317 14.7189C12.4666 14.6955 12.2009 14.6877 11.9349 14.6955Z" fill="#0F172A"/>
</g>
</g>
<defs>
<clipPath id="clip0_231_5710">
<rect width="24" height="24.0469" fill="white" transform="translate(0.333496)"/>
</clipPath>
</defs>
</svg>
