<svg width="25" height="25" viewBox="0 0 25 25" fill="none" xmlns="http://www.w3.org/2000/svg">
<g id="public-toilet 1" clip-path="url(#clip0_231_5747)">
<g id="Group">
<path id="Vector" opacity="0.995" fill-rule="evenodd" clip-rule="evenodd" d="M12.4038 0.398437C16.0913 0.390625 19.7789 0.398437 23.4663 0.421875C23.6773 0.507812 23.8257 0.65625 23.9116 0.867187C23.9429 3.05469 23.9429 5.24217 23.9116 7.42969C23.8257 7.64062 23.6773 7.78908 23.4663 7.875C21.8727 7.89844 20.2789 7.90627 18.6851 7.89844C18.6851 7.64845 18.6851 7.39842 18.6851 7.14844C20.1851 7.14844 21.6851 7.14844 23.1851 7.14844C23.1851 5.14842 23.1851 3.14844 23.1851 1.14844C19.6851 1.14844 16.1851 1.14844 12.6851 1.14844C12.6851 3.14844 12.6851 5.14842 12.6851 7.14844C13.1851 7.14844 13.6851 7.14844 14.1851 7.14844C14.1851 7.39842 14.1851 7.64845 14.1851 7.89844C13.5911 7.90627 12.9974 7.89844 12.4038 7.875C12.1929 7.78908 12.0444 7.64062 11.9585 7.42969C11.9272 5.24217 11.9272 3.05469 11.9585 0.867187C12.0533 0.655312 12.2017 0.499064 12.4038 0.398437Z" fill="black"/>
</g>
<g id="Group_2">
<path id="Vector_2" opacity="0.898" fill-rule="evenodd" clip-rule="evenodd" d="M16.6694 1.99219C17.6967 2.94907 18.7045 3.93345 19.6929 4.94531C19.7241 4.97658 19.7241 5.0078 19.6929 5.03906C19.5288 5.20312 19.3648 5.36719 19.2007 5.53125C19.1694 5.56252 19.1382 5.56252 19.1069 5.53125C18.1304 4.55469 17.1538 3.57812 16.1773 2.60156C16.146 2.57031 16.146 2.53906 16.1773 2.50781C16.3509 2.34208 16.5149 2.1702 16.6694 1.99219Z" fill="black"/>
</g>
<g id="Group_3">
<path id="Vector_3" opacity="0.894" fill-rule="evenodd" clip-rule="evenodd" d="M19.2944 1.99219C19.9467 2.57396 20.5795 3.18334 21.1929 3.82031C21.2241 3.85156 21.2241 3.88281 21.1929 3.91406C21.0288 4.07812 20.8648 4.24219 20.7007 4.40625C20.6694 4.4375 20.6382 4.4375 20.6069 4.40625C20.0054 3.80469 19.4038 3.20312 18.8023 2.60156C18.771 2.57031 18.771 2.53906 18.8023 2.50781C18.9759 2.34208 19.1399 2.1702 19.2944 1.99219Z" fill="black"/>
</g>
<g id="Group_4">
<path id="Vector_4" opacity="0.887" fill-rule="evenodd" clip-rule="evenodd" d="M15.1694 3.49219C15.5878 3.83232 15.9784 4.20732 16.3413 4.61719C16.1694 4.8203 15.9819 5.0078 15.7788 5.17969C15.3882 4.8203 15.0132 4.44531 14.6538 4.05469C14.8267 3.86625 14.9986 3.67875 15.1694 3.49219Z" fill="black"/>
</g>
<g id="Group_5">
<path id="Vector_5" opacity="0.973" fill-rule="evenodd" clip-rule="evenodd" d="M16.0601 5.64842C16.9959 5.51797 17.6131 5.89297 17.9116 6.77342C17.9351 7.14809 17.9428 7.52309 17.9351 7.89842C17.6851 7.89842 17.435 7.89842 17.1851 7.89842C17.1986 7.56734 17.1751 7.23922 17.1147 6.91405C16.9315 6.52165 16.6268 6.37325 16.2007 6.46873C15.8935 6.59065 15.7294 6.8172 15.7085 7.14842C15.6851 8.14831 15.6772 9.1483 15.6851 10.1484C15.935 10.1484 16.1851 10.1484 16.4351 10.1484C16.4351 9.89844 16.4351 9.64841 16.4351 9.39842C16.685 9.39842 16.9351 9.39842 17.1851 9.39842C17.1851 9.64841 17.1851 9.89844 17.1851 10.1484C19.0289 10.1406 20.8726 10.1484 22.7163 10.1719C22.9272 10.2578 23.0757 10.4062 23.1616 10.6172C23.1929 11.2734 23.1929 11.9297 23.1616 12.5859C22.9095 13.8563 22.1829 14.7313 20.9819 15.2109C20.9194 17.1484 20.9194 19.0859 20.9819 21.0234C21.3497 21.1096 21.6544 21.2971 21.896 21.5859C22.1597 22.0117 22.4175 22.4414 22.6694 22.875C22.9659 22.8984 23.2628 22.9062 23.5601 22.8984C23.5601 23.1484 23.5601 23.3984 23.5601 23.6484C15.935 23.6484 8.31007 23.6484 0.685059 23.6484C0.685059 23.3984 0.685059 23.1484 0.685059 22.8984C1.16943 22.8984 1.65381 22.8984 2.13818 22.8984C2.146 20.789 2.13818 18.6796 2.11475 16.5703C1.66765 14.1317 1.21453 11.6942 0.755371 9.2578C0.649705 8.88955 0.66533 8.53015 0.802246 8.17967C0.893109 8.05751 1.0103 7.97159 1.15381 7.92186C1.71631 7.89059 2.27881 7.89059 2.84131 7.92186C3.16023 8.05419 3.33991 8.29639 3.38037 8.64842C3.84644 11.1481 4.30739 13.6481 4.76318 16.1484C6.88826 16.1406 9.01325 16.1484 11.1382 16.1719C11.521 16.3047 11.7788 16.5625 11.9116 16.9453C12.0173 18.4452 11.4001 19.5311 10.0601 20.2031C9.85976 20.2751 9.65665 20.3376 9.45068 20.3906C8.84304 20.4663 8.23367 20.521 7.62256 20.5547C7.787 21.3218 7.95889 22.0874 8.13818 22.8515C9.82545 22.9062 11.5129 22.914 13.2007 22.875C13.4526 22.4414 13.7104 22.0117 13.9741 21.5859C14.2157 21.2971 14.5204 21.1096 14.8882 21.0234C14.9507 19.0859 14.9507 17.1484 14.8882 15.2109C13.3069 14.5339 12.5725 13.3308 12.6851 11.6015C12.6929 11.2734 12.7007 10.9453 12.7085 10.6172C12.7944 10.4062 12.9429 10.2578 13.1538 10.1719C13.7473 10.1484 14.3411 10.1406 14.9351 10.1484C14.9272 9.02333 14.9351 7.89833 14.9585 6.77342C15.1155 6.18678 15.4827 5.81178 16.0601 5.64842ZM1.48193 8.64842C1.86202 8.61964 2.22921 8.65091 2.5835 8.74217C3.02951 11.1987 3.49045 13.6519 3.96631 16.1015C3.59261 16.1483 3.21761 16.1639 2.84131 16.1484C2.38818 13.6484 1.93506 11.1484 1.48193 8.64842ZM6.68506 10.1484C7.68504 10.1484 8.68507 10.1484 9.68506 10.1484C9.68506 10.8984 9.68506 11.6484 9.68506 12.3984C8.68507 12.3984 7.68504 12.3984 6.68506 12.3984C6.68506 11.6484 6.68506 10.8984 6.68506 10.1484ZM13.4351 10.8984C16.4351 10.8984 19.4351 10.8984 22.4351 10.8984C22.466 11.5628 22.4113 12.219 22.271 12.8672C21.8971 13.7721 21.233 14.3424 20.2788 14.5781C18.7163 14.6719 17.1538 14.6719 15.5913 14.5781C14.6367 14.342 13.9726 13.7717 13.5991 12.8672C13.4588 12.219 13.4041 11.5628 13.4351 10.8984ZM7.43506 13.1484C7.93507 13.1484 8.43504 13.1484 8.93506 13.1484C8.93506 13.3984 8.93506 13.6484 8.93506 13.8984C8.43504 13.8984 7.93507 13.8984 7.43506 13.8984C7.43506 13.6484 7.43506 13.3984 7.43506 13.1484ZM15.6851 15.3984C17.1851 15.3984 18.6851 15.3984 20.1851 15.3984C20.1851 17.2734 20.1851 19.1484 20.1851 21.0234C18.6851 21.0234 17.1851 21.0234 15.6851 21.0234C15.6851 19.1484 15.6851 17.2734 15.6851 15.3984ZM2.93506 16.8984C5.56011 16.8906 8.18511 16.8984 10.8101 16.9219C10.9504 16.9409 11.052 17.0112 11.1147 17.1328C11.1381 17.304 11.1459 17.4758 11.1382 17.6484C8.40382 17.6484 5.66942 17.6484 2.93506 17.6484C2.93506 17.3984 2.93506 17.1484 2.93506 16.8984ZM2.93506 18.3984C5.57572 18.3906 8.21637 18.3984 10.8569 18.4219C10.5095 19.0032 10.0095 19.3939 9.35693 19.5937C8.09407 19.7166 6.82845 19.8103 5.56006 19.875C5.52593 20.1291 5.52593 20.387 5.56006 20.6484C5.98236 20.6425 6.40423 20.6269 6.82568 20.6015C6.98192 21.3672 7.1382 22.1328 7.29443 22.8984C5.84131 22.8984 4.38818 22.8984 2.93506 22.8984C2.93506 21.3984 2.93506 19.8984 2.93506 18.3984ZM15.2163 21.7734C17.1242 21.7516 19.0304 21.7751 20.9351 21.8437C21.021 21.8984 21.1069 21.9531 21.1929 22.0078C21.3667 22.3008 21.5464 22.5898 21.7319 22.875C19.2007 22.9062 16.6694 22.9062 14.1382 22.875C14.3238 22.5898 14.5034 22.3008 14.6772 22.0078C14.8364 21.8693 15.0161 21.7912 15.2163 21.7734Z" fill="black"/>
</g>
<g id="Group_6">
<path id="Vector_6" opacity="0.987" fill-rule="evenodd" clip-rule="evenodd" d="M6.40381 9.39844C7.59143 9.39062 8.77892 9.39844 9.96631 9.42188C10.1772 9.5078 10.3257 9.65626 10.4116 9.86719C10.4351 10.2106 10.4428 10.5543 10.4351 10.8984C10.685 10.8984 10.9351 10.8984 11.1851 10.8984C11.1851 11.1484 11.1851 11.3985 11.1851 11.6484C10.9351 11.6484 10.685 11.6484 10.4351 11.6484C10.4491 12.0105 10.4335 12.3699 10.3882 12.7266C10.248 13.0233 10.0136 13.1639 9.68506 13.1484C9.91953 14.3828 9.41951 14.8827 8.18506 14.6484C6.95061 14.8827 6.45059 14.3828 6.68506 13.1484C6.33261 13.1636 6.0904 13.0074 5.9585 12.6797C5.93506 12.3363 5.92728 11.9926 5.93506 11.6484C5.68507 11.6484 5.43504 11.6484 5.18506 11.6484C5.18506 11.3985 5.18506 11.1484 5.18506 10.8984C5.43504 10.8984 5.68507 10.8984 5.93506 10.8984C5.92728 10.5543 5.93506 10.2106 5.9585 9.86719C6.05328 9.65532 6.20173 9.49908 6.40381 9.39844ZM6.68506 10.1484C6.68506 10.8984 6.68506 11.6484 6.68506 12.3984C7.68504 12.3984 8.68507 12.3984 9.68506 12.3984C9.68506 11.6484 9.68506 10.8984 9.68506 10.1484C8.68507 10.1484 7.68504 10.1484 6.68506 10.1484ZM7.43506 13.1484C7.43506 13.3984 7.43506 13.6485 7.43506 13.8984C7.93507 13.8984 8.43504 13.8984 8.93506 13.8984C8.93506 13.6485 8.93506 13.3984 8.93506 13.1484C8.43504 13.1484 7.93507 13.1484 7.43506 13.1484Z" fill="black"/>
</g>
</g>
<defs>
<clipPath id="clip0_231_5747">
<rect width="24" height="24" fill="white" transform="translate(0.333496 0.046875)"/>
</clipPath>
</defs>
</svg>
