<svg width="24" height="24" viewBox="0 0 24 24" fill="none" xmlns="http://www.w3.org/2000/svg">
<g id="cctv-camera 1">
<g id="Group">
<path id="Vector" opacity="0.987" fill-rule="evenodd" clip-rule="evenodd" d="M14.9766 3.86734C16.0232 3.76569 16.9295 4.07037 17.6953 4.7814C18.8222 5.89365 19.5878 7.22176 19.9922 8.76578C19.9366 9.24329 19.671 9.52454 19.1953 9.60953C15.8718 10.826 12.5437 12.0291 9.21094 13.2189C8.68308 13.3104 8.25342 13.1463 7.92188 12.7267C7.64138 12.1344 7.36013 11.5406 7.07812 10.9455C6.40303 9.77031 5.45775 8.88746 4.24219 8.29703C4.01007 8.21167 3.7757 8.13353 3.53906 8.06265C7.34972 6.64932 11.1623 5.25085 14.9766 3.86734Z" fill="#0F172A"/>
</g>
<g id="Group_2">
<path id="Vector_2" opacity="0.94" fill-rule="evenodd" clip-rule="evenodd" d="M2.55487 8.41422C3.19944 8.35408 3.80881 8.47127 4.38299 8.76579C3.91644 9.20655 3.62737 9.74561 3.51581 10.383C3.38383 11.0452 3.39164 11.7093 3.53924 12.3752C3.52362 12.3986 3.50799 12.422 3.49237 12.4455C2.86899 11.6364 2.39242 10.7457 2.06268 9.7736C1.97357 9.4444 1.97357 9.11627 2.06268 8.78922C2.17072 8.57833 2.33479 8.45332 2.55487 8.41422Z" fill="#0F172A"/>
</g>
<g id="Group_3">
<path id="Vector_3" opacity="0.933" fill-rule="evenodd" clip-rule="evenodd" d="M4.66409 8.97632C5.0194 9.13518 5.33187 9.36172 5.60159 9.65601C5.16532 9.81116 4.8919 10.1158 4.78128 10.5701C4.53976 12.1737 5.0007 13.5408 6.16409 14.6716C6.6079 15.0571 7.09226 15.1196 7.61721 14.8591C7.97984 14.4904 8.15956 14.0451 8.15628 13.5232C8.17071 13.4853 8.19415 13.4541 8.22659 13.4294C8.49532 13.5513 8.77657 13.6295 9.07034 13.6638C9.0514 14.4951 8.73888 15.1904 8.13284 15.7498C7.42549 16.1577 6.72237 16.1421 6.02346 15.7029C4.87114 14.8767 4.16022 13.7595 3.89065 12.3513C3.67113 11.3582 3.7805 10.4051 4.21878 9.49194C4.35951 9.31222 4.50795 9.14038 4.66409 8.97632Z" fill="#0F172A"/>
</g>
<g id="Group_4">
<path id="Vector_4" opacity="0.925" fill-rule="evenodd" clip-rule="evenodd" d="M5.55477 10.0544C5.71181 10.0467 5.86804 10.0545 6.02352 10.0778C6.18759 10.2732 6.35165 10.4684 6.51571 10.6638C6.8887 11.3295 7.21682 12.017 7.50009 12.7263C7.8201 13.0931 7.89824 13.5149 7.73446 13.9919C7.6236 14.5251 7.30331 14.736 6.77352 14.6247C6.31509 14.4006 5.96352 14.0647 5.71884 13.6169C5.23551 12.8086 5.01679 11.9337 5.06259 10.9919C5.09315 10.6023 5.25721 10.2899 5.55477 10.0544ZM6.0704 11.4606C6.41601 11.4344 6.67382 11.575 6.84384 11.8825C7.03462 12.2027 7.0971 12.5465 7.03134 12.9138C6.75745 13.3824 6.44493 13.3981 6.09384 12.9606C5.83626 12.6097 5.74251 12.2191 5.81259 11.7888C5.85792 11.6425 5.94384 11.5331 6.0704 11.4606Z" fill="#0F172A"/>
</g>
<g id="Group_5">
<path id="Vector_5" opacity="0.96" fill-rule="evenodd" clip-rule="evenodd" d="M18.5391 10.1951C18.6075 11.1205 18.2637 11.8627 17.5078 12.4216C14.8588 13.4088 12.2025 14.3776 9.53906 15.3279C9.30858 15.4206 9.0742 15.4831 8.83594 15.5154C9.21047 14.9158 9.39797 14.2674 9.39844 13.5701C12.4495 12.4438 15.4964 11.3188 18.5391 10.1951Z" fill="#0F172A"/>
</g>
<g id="Group_6">
<path id="Vector_6" opacity="0.858" fill-rule="evenodd" clip-rule="evenodd" d="M6.21098 11.7888C6.52884 11.963 6.68512 12.2364 6.67973 12.6091C6.71582 12.9263 6.62207 12.981 6.39848 12.7732C6.17399 12.4748 6.11151 12.1467 6.21098 11.7888Z" fill="#0F172A"/>
</g>
<g id="Group_7">
<path id="Vector_7" opacity="0.947" fill-rule="evenodd" clip-rule="evenodd" d="M16.2891 13.2421C16.3441 13.2318 16.391 13.2474 16.4297 13.2889C16.2749 13.7455 16.1343 14.2064 16.0078 14.6718C16.2405 15.3543 16.4827 16.034 16.7344 16.7108C16.9218 17.5316 16.6171 18.0707 15.8203 18.328C15.2482 18.4136 14.8029 18.2183 14.4844 17.7421C14.211 17.0077 13.9375 16.2733 13.6641 15.5389C13.2502 15.2461 12.8284 14.9648 12.3984 14.6952C13.6958 14.2004 14.9927 13.716 16.2891 13.2421ZM15.3516 16.3827C15.9752 16.373 16.233 16.6699 16.125 17.2733C15.8465 17.6882 15.495 17.7585 15.0703 17.4843C14.7571 17.0115 14.8509 16.6443 15.3516 16.3827Z" fill="#0F172A"/>
</g>
<g id="Group_8">
<path id="Vector_8" opacity="0.96" fill-rule="evenodd" clip-rule="evenodd" d="M20.5078 13.4763C20.961 13.4763 21.4141 13.4763 21.8672 13.4763C21.8672 15.8357 21.8672 18.1951 21.8672 20.5544C21.3954 20.573 20.9266 20.5495 20.4609 20.4841C20.1591 20.3541 19.9794 20.1276 19.9219 19.8044C19.8906 17.9294 19.8906 16.0544 19.9219 14.1794C19.9914 13.8368 20.1867 13.6025 20.5078 13.4763Z" fill="#0F172A"/>
</g>
<g id="Group_9">
<path id="Vector_9" opacity="0.962" fill-rule="evenodd" clip-rule="evenodd" d="M16.8047 15.9137C17.7028 15.867 18.609 15.8514 19.5234 15.8669C19.5234 16.6325 19.5234 17.3981 19.5234 18.1637C18.6166 18.1793 17.7104 18.1637 16.8047 18.1169C17.1224 17.6952 17.2239 17.2264 17.1094 16.7106C17.0111 16.4385 16.9095 16.1729 16.8047 15.9137Z" fill="#0F172A"/>
</g>
<g id="Group_10">
<path id="Vector_10" opacity="0.806" fill-rule="evenodd" clip-rule="evenodd" d="M15.3517 16.758C15.7614 16.7213 15.8864 16.8853 15.7267 17.2501C15.3604 17.3684 15.2119 17.2356 15.2814 16.8517C15.315 16.8262 15.3384 16.7949 15.3517 16.758Z" fill="#0F172A"/>
</g>
</g>
</svg>
