<svg width="25" height="24" viewBox="0 0 25 24" fill="none" xmlns="http://www.w3.org/2000/svg">
<g id="pot 1" clip-path="url(#clip0_231_5675)">
<g id="Group">
<path id="Vector" opacity="0.955" fill-rule="evenodd" clip-rule="evenodd" d="M5.18507 -0.0231934C5.45071 -0.0231934 5.7163 -0.0231934 5.98194 -0.0231934C6.69983 0.194921 7.09044 0.679294 7.15382 1.42993C9.88822 1.42212 12.6226 1.42993 15.3569 1.45337C15.7057 1.67006 15.776 1.95912 15.5679 2.32056C15.4835 2.40573 15.382 2.46042 15.2632 2.48462C12.5758 2.50806 9.88822 2.51587 7.20069 2.50806C7.20069 3.0393 7.20069 3.57056 7.20069 4.10181C9.91949 4.09399 12.6382 4.10181 15.3569 4.12524C15.737 4.38377 15.7839 4.69628 15.4976 5.06274C15.4232 5.10315 15.345 5.13442 15.2632 5.15649C13.1069 5.1721 10.9507 5.18776 8.79444 5.20337C10.2873 6.47785 10.9045 8.09504 10.646 10.0549C10.2951 11.8129 9.3185 13.0863 7.71632 13.8752C5.43683 14.7495 3.44466 14.3198 1.73975 12.5862C0.331401 10.7881 0.11265 8.85057 1.0835 6.77368C1.4085 6.15151 1.85382 5.62806 2.41944 5.20337C1.99757 5.18776 1.57569 5.1721 1.15382 5.15649C0.762207 5.0057 0.645019 4.73228 0.802254 4.33618C0.874578 4.24814 0.960514 4.17782 1.06007 4.12524C2.04432 4.10181 3.0287 4.094 4.01319 4.10181C4.01319 3.57056 4.01319 3.0393 4.01319 2.50806C3.05994 2.51587 2.10681 2.50806 1.15382 2.48462C0.762207 2.33383 0.645019 2.06039 0.802254 1.66431C0.874578 1.57626 0.960514 1.50595 1.06007 1.45337C2.04432 1.42993 3.0287 1.42212 4.01319 1.42993C4.11087 0.707438 4.50149 0.223063 5.18507 -0.0231934ZM5.41944 1.05493C5.80555 0.985913 6.03215 1.14216 6.09913 1.52368C6.12257 2.38291 6.13039 3.24229 6.12257 4.10181C5.77883 4.10181 5.43505 4.10181 5.09132 4.10181C5.08349 3.21105 5.09132 2.32042 5.11475 1.42993C5.17461 1.26877 5.27614 1.14376 5.41944 1.05493ZM5.09132 5.17993C7.26435 5.08974 8.72525 6.05851 9.47413 8.08618C9.88316 9.80317 9.42219 11.2329 8.09132 12.3752C6.48965 13.4954 4.86465 13.5266 3.21632 12.469C1.83443 11.3549 1.32662 9.92518 1.69288 8.17993C2.23611 6.50345 3.36893 5.50346 5.09132 5.17993ZM5.32569 7.66431C6.63318 7.68249 7.21911 8.33874 7.0835 9.63306C6.74188 10.5032 6.10907 10.8548 5.18507 10.6877C4.37213 10.3824 4.00494 9.79642 4.0835 8.92993C4.2561 8.2652 4.67016 7.84332 5.32569 7.66431Z" fill="#0F172A"/>
</g>
<g id="Group_2">
<path id="Vector_2" opacity="0.963" fill-rule="evenodd" clip-rule="evenodd" d="M5.23208 6.58629C6.62863 6.50253 7.58178 7.10407 8.09145 8.39098C8.45281 9.99659 7.87466 11.106 6.35708 11.7191C5.03919 12.0197 4.01575 11.6056 3.28677 10.4769C2.67312 9.03743 2.99343 7.85773 4.2477 6.93785C4.56655 6.77703 4.89468 6.65984 5.23208 6.58629ZM5.32583 7.66442C4.6703 7.84343 4.25624 8.26531 4.08364 8.93004C4.00508 9.79653 4.37226 10.3825 5.1852 10.6879C6.1092 10.8549 6.74202 10.5033 7.08364 9.63317C7.21925 8.33885 6.63331 7.6826 5.32583 7.66442Z" fill="#0F172A"/>
</g>
<g id="Group_3">
<path id="Vector_3" opacity="0.961" fill-rule="evenodd" clip-rule="evenodd" d="M22.5284 17.5081C21.8721 17.5081 21.2159 17.5081 20.5596 17.5081C21.2094 17.3821 21.6547 17.0071 21.8955 16.3831C21.9639 15.3074 21.9873 14.2293 21.9659 13.1487C19.2471 13.1487 16.5284 13.1487 13.8096 13.1487C13.7893 14.1974 13.8127 15.2443 13.8799 16.2893C14.0912 16.984 14.5522 17.3902 15.2627 17.5081C14.5909 17.5081 13.919 17.5081 13.2471 17.5081C13.0309 17.1804 12.8824 16.821 12.8018 16.4299C12.7373 15.7287 12.7139 15.0256 12.7315 14.3206C12.4995 14.3459 12.2807 14.3069 12.0752 14.2034C11.7821 13.8168 11.8447 13.5043 12.2627 13.2659C12.4182 13.2425 12.5744 13.2347 12.7315 13.2424C12.7237 12.711 12.7315 12.1797 12.7549 11.6487C12.8227 10.6907 13.2836 9.99536 14.1377 9.56275C14.362 9.46371 14.5964 9.40122 14.8409 9.37525C15.6845 9.35182 16.5282 9.34399 17.3721 9.35182C17.3077 8.7363 17.5733 8.4941 18.169 8.62525C18.4045 8.80769 18.4982 9.04989 18.4502 9.35182C19.2941 9.34399 20.1379 9.35182 20.9815 9.37525C22.0117 9.54607 22.6758 10.132 22.9737 11.1331C23.04 11.8338 23.0635 12.537 23.044 13.2424C23.523 13.1425 23.8199 13.3222 23.9346 13.7815C23.8226 14.2445 23.5258 14.4242 23.044 14.3206C23.0518 14.9926 23.044 15.6645 23.0205 16.3362C22.9516 16.7702 22.7876 17.1608 22.5284 17.5081ZM14.9346 10.4299C16.9191 10.4221 18.9034 10.4299 20.8877 10.4534C21.6828 10.695 22.0422 11.234 21.9659 12.0706C19.2471 12.0706 16.5284 12.0706 13.8096 12.0706C13.7579 11.2182 14.1329 10.6714 14.9346 10.4299ZM20.5596 17.5081C18.794 17.5081 17.0284 17.5081 15.2627 17.5081C14.5522 17.3902 14.0912 16.984 13.8799 16.2893C13.8127 15.2443 13.7893 14.1974 13.8096 13.1487C16.5284 13.1487 19.2471 13.1487 21.9659 13.1487C21.9873 14.2293 21.9639 15.3074 21.8955 16.3831C21.6547 17.0071 21.2094 17.3821 20.5596 17.5081Z" fill="#0F172A"/>
</g>
<g id="Group_4">
<path id="Vector_4" opacity="0.969" fill-rule="evenodd" clip-rule="evenodd" d="M13.2476 17.5079C13.9194 17.5079 14.5913 17.5079 15.2632 17.5079C17.0288 17.5079 18.7944 17.5079 20.5601 17.5079C21.2163 17.5079 21.8726 17.5079 22.5288 17.5079C22.951 17.5002 23.3728 17.5079 23.7944 17.5314C23.9272 17.6017 24.0288 17.7033 24.0991 17.8361C24.1304 18.7736 24.1304 19.7111 24.0991 20.6486C24.0288 20.7814 23.9272 20.8829 23.7944 20.9533C23.451 20.9767 23.1073 20.9845 22.7632 20.9767C22.771 21.8831 22.7632 22.7893 22.7397 23.6954C22.676 23.8137 22.5901 23.9075 22.4819 23.9767C15.8257 23.9767 9.16943 23.9767 2.51318 23.9767C2.38663 23.9042 2.30069 23.7949 2.25537 23.6486C2.23194 22.7581 2.22413 21.8675 2.23193 20.9767C1.88783 20.9845 1.54408 20.9767 1.20068 20.9533C1.04806 20.8789 0.9465 20.7617 0.895997 20.6017C0.864746 19.6955 0.864746 18.7892 0.895997 17.8829C0.9465 17.723 1.04806 17.6058 1.20068 17.5314C5.21628 17.5079 9.23192 17.5001 13.2476 17.5079ZM1.95068 18.5861C8.98193 18.5861 16.0132 18.5861 23.0444 18.5861C23.0444 19.0236 23.0444 19.4611 23.0444 19.8986C16.0132 19.8986 8.98193 19.8986 1.95068 19.8986C1.95068 19.4611 1.95068 19.0236 1.95068 18.5861ZM3.31006 20.9767C9.43508 20.9767 15.56 20.9767 21.6851 20.9767C21.6851 21.6329 21.6851 22.2892 21.6851 22.9454C15.56 22.9454 9.43508 22.9454 3.31006 22.9454C3.31006 22.2892 3.31006 21.6329 3.31006 20.9767Z" fill="#0F172A"/>
</g>
</g>
<defs>
<clipPath id="clip0_231_5675">
<rect width="24" height="24" fill="white" transform="translate(0.333496)"/>
</clipPath>
</defs>
</svg>
