<svg width="25" height="25" viewBox="0 0 25 25" fill="none" xmlns="http://www.w3.org/2000/svg">
<g id="fridge 1" clip-path="url(#clip0_231_5737)">
<g id="Group">
<path id="Vector" opacity="0.941" fill-rule="evenodd" clip-rule="evenodd" d="M5.23694 0.0234375C8.75256 0.0234375 12.2682 0.0234375 15.7838 0.0234375C16.2128 0.194894 16.4862 0.507394 16.6041 0.960938C16.6354 1.67969 16.6354 2.39844 16.6041 3.11719C16.4629 3.35321 16.2676 3.4079 16.0182 3.28125C15.9619 3.23895 15.9228 3.18426 15.901 3.11719C15.8854 2.42969 15.8697 1.74219 15.8541 1.05469C15.7745 0.881016 15.6416 0.779452 15.4557 0.75C12.1588 0.718748 8.86192 0.718748 5.56506 0.75C5.38047 0.760036 5.24764 0.845972 5.16663 1.00781C5.14319 3.53902 5.13538 6.07027 5.14319 8.60156C7.59635 8.60939 10.0495 8.60156 12.5026 8.57812C12.2005 8.38669 12.1537 8.15231 12.3619 7.875C12.5338 7.78125 12.7057 7.78125 12.8776 7.875C13.1119 8.10938 13.3463 8.34375 13.5807 8.57812C14.1588 8.60939 14.737 8.60939 15.3151 8.57812C14.9401 8.20312 14.5651 7.82812 14.1901 7.45312C13.8151 7.43752 13.4401 7.42186 13.0651 7.40625C12.7293 7.21903 12.698 6.98466 12.9713 6.70312C13.1119 6.68752 13.2526 6.67186 13.3932 6.65625C13.2447 6.5078 13.0963 6.35939 12.9479 6.21094C12.8405 5.77552 13.0046 5.59584 13.4401 5.67188C13.6181 5.80298 13.7822 5.95144 13.9323 6.11719C13.8642 5.78545 13.9892 5.5823 14.3073 5.50781C14.5055 5.5342 14.6305 5.64356 14.6823 5.83594C14.6979 6.19533 14.7135 6.55467 14.7291 6.91406C15.1041 7.28906 15.4791 7.66406 15.8541 8.03906C15.8854 7.52344 15.8854 7.00781 15.8541 6.49219C15.6198 6.25781 15.3854 6.02344 15.151 5.78906C14.9822 5.30203 15.1463 5.1067 15.6432 5.20312C15.7135 5.27344 15.7838 5.34375 15.8541 5.41406C15.8697 5.1172 15.8854 4.8203 15.901 4.52344C16.0395 4.34641 16.2192 4.29173 16.4401 4.35938C16.5127 4.41628 16.5673 4.48659 16.6041 4.57031C16.6197 4.85156 16.6354 5.13281 16.651 5.41406C16.8473 5.12902 17.0816 5.08214 17.3541 5.27344C17.4479 5.44533 17.4479 5.61717 17.3541 5.78906C17.1198 6.02344 16.8854 6.25781 16.651 6.49219C16.6197 7.00781 16.6197 7.52344 16.651 8.03906C17.026 7.66406 17.401 7.28906 17.776 6.91406C17.7916 6.53906 17.8073 6.16406 17.8229 5.78906C17.9764 5.51395 18.1873 5.45925 18.4557 5.625C18.5307 5.77814 18.5698 5.9422 18.5729 6.11719C18.7697 5.90466 18.9806 5.70933 19.2057 5.53125C19.631 5.51433 19.7794 5.70966 19.651 6.11719C19.4713 6.29686 19.2916 6.47658 19.1119 6.65625C19.579 6.60712 19.7587 6.80245 19.651 7.24219C19.5941 7.3148 19.5238 7.36945 19.4401 7.40625C19.0651 7.42186 18.6901 7.43752 18.3151 7.45312C17.9401 7.82812 17.5651 8.20312 17.1901 8.57812C17.7057 8.60939 18.2213 8.60939 18.7369 8.57812C18.9713 8.34375 19.2057 8.10938 19.4401 7.875C19.9297 7.70897 20.125 7.87303 20.026 8.36719C19.9557 8.4375 19.8854 8.50781 19.8151 8.57812C20.1326 8.58178 20.4451 8.61305 20.7526 8.67188C20.8882 8.80823 20.9273 8.9723 20.8698 9.16406C20.8128 9.23667 20.7425 9.29133 20.6588 9.32812C20.3776 9.34373 20.0963 9.35939 19.8151 9.375C20.1001 9.57127 20.147 9.80564 19.9557 10.0781C19.7838 10.1719 19.612 10.1719 19.4401 10.0781C19.2057 9.84375 18.9713 9.60938 18.7369 9.375C18.2213 9.34373 17.7057 9.34373 17.1901 9.375C17.5651 9.75 17.9401 10.125 18.3151 10.5C18.6901 10.5156 19.0651 10.5313 19.4401 10.5469C19.716 10.7025 19.7707 10.9134 19.6041 11.1797C19.451 11.2547 19.2869 11.2938 19.1119 11.2969C19.2916 11.4765 19.4713 11.6563 19.651 11.8359C19.801 12.2625 19.6526 12.4577 19.2057 12.4219C18.9806 12.2438 18.7697 12.0485 18.5729 11.8359C18.5896 12.3541 18.363 12.5182 17.8932 12.3281C17.8638 12.293 17.8404 12.2539 17.8229 12.2109C17.8073 11.8203 17.7916 11.4297 17.776 11.0391C17.401 10.6641 17.026 10.2891 16.651 9.91406C16.6197 10.4922 16.6197 11.0703 16.651 11.6484C16.8854 11.8828 17.1198 12.1172 17.3541 12.3516C17.5202 12.8412 17.3561 13.0365 16.8619 12.9375C16.7916 12.8672 16.7213 12.7969 16.651 12.7266C16.6354 16.2578 16.6197 19.7891 16.6041 23.3203C16.5167 23.6495 16.3214 23.8839 16.0182 24.0234C15.5494 24.0234 15.0807 24.0234 14.6119 24.0234C14.4169 23.9216 14.2529 23.781 14.1198 23.6016C13.9414 23.1835 13.7774 22.7617 13.6276 22.3359C11.9868 22.3438 10.3462 22.3359 8.70569 22.3125C8.57135 22.2472 8.50886 22.1378 8.51819 21.9844C8.51388 21.8525 8.56075 21.7431 8.65881 21.6562C11.0623 21.5865 13.4685 21.5631 15.8776 21.5859C15.8854 18.6328 15.8776 15.6796 15.8541 12.7266C15.6308 13.0417 15.3808 13.073 15.1041 12.8203C15.0658 12.6579 15.0815 12.5017 15.151 12.3516C15.3854 12.1172 15.6198 11.8828 15.8541 11.6484C15.8854 11.0703 15.8854 10.4922 15.8541 9.91406C15.4791 10.2891 15.1041 10.6641 14.7291 11.0391C14.7135 11.3985 14.6979 11.7578 14.6823 12.1172C14.5156 12.488 14.2812 12.5349 13.9791 12.2578C13.9635 12.1172 13.9479 11.9766 13.9323 11.8359C13.7822 12.0017 13.6181 12.1501 13.4401 12.2812C13.0046 12.3573 12.8405 12.1776 12.9479 11.7422C13.0963 11.5937 13.2447 11.4453 13.3932 11.2969C12.9907 11.3624 12.7954 11.1983 12.8073 10.8047C12.8513 10.6513 12.9529 10.5653 13.1119 10.5469C13.4713 10.5313 13.8307 10.5156 14.1901 10.5C14.5651 10.125 14.9401 9.75 15.3151 9.375C14.737 9.34373 14.1588 9.34373 13.5807 9.375C13.3463 9.60938 13.1119 9.84375 12.8776 10.0781C12.523 10.2501 12.3043 10.1485 12.2213 9.77344C12.2679 9.60933 12.3616 9.47653 12.5026 9.375C10.0495 9.35156 7.59635 9.34373 5.14319 9.35156C5.14319 13.4297 5.14319 17.5078 5.14319 21.5859C5.8465 21.5781 6.54963 21.5859 7.25256 21.6094C7.50011 21.7428 7.57042 21.9381 7.4635 22.1953C7.29161 22.6172 7.11977 23.0391 6.94788 23.4609C6.81808 23.7237 6.62275 23.9112 6.36194 24.0234C5.9088 24.0234 5.45571 24.0234 5.00256 24.0234C4.72224 23.9071 4.52693 23.704 4.41663 23.4141C4.38538 15.8985 4.38538 8.3828 4.41663 0.867188C4.54241 0.436781 4.81585 0.155531 5.23694 0.0234375ZM7.01819 10.8984C7.14452 10.9187 7.2461 10.9812 7.32288 11.0859C7.35414 11.8515 7.35414 12.6172 7.32288 13.3828C7.21567 13.5717 7.06722 13.6108 6.87756 13.5C6.81227 13.4451 6.77317 13.3748 6.76038 13.2891C6.72911 12.6015 6.72911 11.9141 6.76038 11.2266C6.7713 11.0522 6.85722 10.9428 7.01819 10.8984ZM5.14319 22.3359C5.62783 22.3282 6.11219 22.3359 6.59631 22.3594C6.46019 22.6239 6.343 22.8974 6.24475 23.1797C6.20242 23.236 6.14777 23.2751 6.08069 23.2969C5.95567 23.3047 5.83071 23.3125 5.70569 23.3203C5.51683 23.3288 5.33715 23.2975 5.16663 23.2266C5.14321 22.9301 5.1354 22.6332 5.14319 22.3359ZM14.4244 22.3828C14.9004 22.3362 15.3847 22.3206 15.8776 22.3359C15.8853 22.6176 15.8775 22.8989 15.8541 23.1797C15.8118 23.236 15.7571 23.2751 15.6901 23.2969C15.565 23.3047 15.4401 23.3125 15.3151 23.3203C15.1335 23.3297 14.9617 23.2985 14.7994 23.2266C14.6721 22.9411 14.5471 22.6598 14.4244 22.3828Z" fill="black"/>
</g>
<g id="Group_2">
<path id="Vector_2" opacity="0.932" fill-rule="evenodd" clip-rule="evenodd" d="M7.0182 3.16406C7.55206 3.19027 7.90362 3.4559 8.07289 3.96094C8.10415 4.8203 8.10415 5.6797 8.07289 6.53906C7.93156 7.06322 7.58783 7.32881 7.04164 7.33594C6.43953 7.28072 6.09575 6.95259 6.01039 6.35156C5.97912 5.63283 5.97912 4.91405 6.01039 4.19531C6.07339 3.57766 6.40934 3.23391 7.0182 3.16406ZM7.0182 3.91406C7.14265 3.93753 7.24423 4.00004 7.32289 4.10156C7.35415 4.86717 7.35415 5.63283 7.32289 6.39844C7.23753 6.56208 7.10473 6.61673 6.92445 6.5625C6.83131 6.50067 6.77661 6.41475 6.76039 6.30469C6.72912 5.61717 6.72912 4.9297 6.76039 4.24219C6.78804 4.08226 6.87397 3.97289 7.0182 3.91406Z" fill="black"/>
</g>
<g id="Group_3">
<path id="Vector_3" opacity="0.934" fill-rule="evenodd" clip-rule="evenodd" d="M6.92442 10.1485C7.50633 10.129 7.88915 10.3946 8.07286 10.9453C8.10412 11.8047 8.10412 12.6641 8.07286 13.5235C7.98511 13.8406 7.79761 14.075 7.51036 14.2266C7.49475 14.6641 7.47909 15.1016 7.46348 15.5391C7.35895 15.8655 7.14801 15.9514 6.83067 15.7969C6.80133 15.7617 6.77789 15.7226 6.76036 15.6797C6.74475 15.211 6.72909 14.7422 6.71348 14.2735C6.26184 14.1027 6.02747 13.7746 6.01036 13.2891C5.9677 12.4904 5.98331 11.6935 6.05723 10.8985C6.2039 10.4783 6.49294 10.2283 6.92442 10.1485ZM7.01817 10.8985C6.8572 10.9428 6.77128 11.0522 6.76036 11.2266C6.72909 11.9141 6.72909 12.6016 6.76036 13.2891C6.77315 13.3748 6.81225 13.4451 6.87755 13.5C7.0672 13.6108 7.21565 13.5717 7.32286 13.3828C7.35412 12.6172 7.35412 11.8516 7.32286 11.086C7.24608 10.9812 7.1445 10.9187 7.01817 10.8985Z" fill="black"/>
</g>
</g>
<defs>
<clipPath id="clip0_231_5737">
<rect width="24" height="24" fill="white" transform="translate(0.666626 0.046875)"/>
</clipPath>
</defs>
</svg>
