<svg width="24" height="25" viewBox="0 0 24 25" fill="none" xmlns="http://www.w3.org/2000/svg">
<g id="coffee-beans 1" clip-path="url(#clip0_231_5723)">
<g id="Group">
<path id="Vector" opacity="0.932" fill-rule="evenodd" clip-rule="evenodd" d="M17.2266 0.773443C20.6251 0.633226 22.6017 2.2426 23.1562 5.60157C23.3652 8.03129 22.8027 10.2657 21.4687 12.3047C20.2806 14.1803 18.6635 15.5476 16.6172 16.4063C15.6665 16.7753 14.6821 16.9238 13.6641 16.8516C13.4823 18.4215 12.9119 19.8278 11.9531 21.0703C10.2253 22.966 8.17063 23.4269 5.78906 22.4531C4.3246 21.7231 3.17616 20.6528 2.34374 19.2422C0.534008 16.1113 0.237133 12.8456 1.45312 9.44532C2.0619 7.94593 3.10096 6.86002 4.57031 6.18751C6.45567 5.55211 8.19787 5.82554 9.79687 7.00782C10.9151 4.46775 12.7198 2.58493 15.2109 1.35938C15.8652 1.08275 16.5371 0.887443 17.2266 0.773443ZM17.3203 1.57032C18.0372 1.51937 18.7403 1.58968 19.4297 1.78126C17.8746 3.16675 16.7887 4.86207 16.1719 6.86719C15.9725 7.67672 15.785 8.48925 15.6094 9.30469C15.1781 10.7457 14.4906 12.0426 13.5469 13.1953C13.086 10.9918 12.0625 9.10111 10.4766 7.52344C11.44 5.20871 13.0181 3.45091 15.2109 2.25001C15.8906 1.93224 16.5937 1.70568 17.3203 1.57032ZM20.1797 2.13282C20.3858 2.23713 20.5733 2.36994 20.7422 2.53126C19.2234 3.91003 18.1375 5.5741 17.4844 7.52344C17.2403 8.54049 16.9904 9.55608 16.7344 10.5703C16.1328 12.3055 15.1563 13.7899 13.8047 15.0234C13.7722 14.9988 13.7488 14.9676 13.7344 14.9297C13.724 14.7084 13.7006 14.4897 13.6641 14.2734C15.467 12.3142 16.5373 10.0017 16.875 7.33594C17.4922 5.29004 18.5938 3.55565 20.1797 2.13282ZM21.2578 3.11719C21.6936 3.59739 21.9983 4.15989 22.1719 4.80469C22.5936 6.6188 22.4374 8.38444 21.7031 10.1016C20.7027 12.5394 19.023 14.3441 16.6641 15.5156C15.7693 15.9227 14.8318 16.0946 13.8516 16.0313C15.7724 14.4958 17.0537 12.5348 17.6953 10.1484C18.0657 7.3763 19.2532 5.03255 21.2578 3.11719ZM5.97656 6.63282C5.95832 8.65754 6.38798 10.5951 7.26562 12.4453C7.69724 13.2203 8.16599 13.9703 8.67187 14.6953C9.88124 16.8828 10.2875 19.211 9.89062 21.6797C9.70457 21.7922 9.50929 21.886 9.30468 21.9609C9.60417 19.5131 9.20573 17.1849 8.10937 14.9766C7.67967 14.242 7.22657 13.5233 6.74999 12.8203C5.68471 10.927 5.25501 8.90358 5.46093 6.75001C5.64126 6.72033 5.81315 6.68124 5.97656 6.63282ZM6.86718 6.67969C7.94845 6.82979 8.90156 7.25949 9.72656 7.96875C11.4766 9.61707 12.5157 11.6405 12.8437 14.0391C13.1459 16.0339 12.8334 17.9245 11.9062 19.7109C11.6176 20.2263 11.2504 20.6794 10.8047 21.0703C11.005 18.7418 10.5597 16.5387 9.46874 14.4609C9.03126 13.7734 8.59373 13.086 8.15624 12.3984C7.18551 10.6152 6.75581 8.70896 6.86718 6.67969ZM4.57031 7.05469C4.50092 9.16735 4.96185 11.1674 5.95312 13.0547C6.3906 13.7422 6.82813 14.4297 7.26562 15.1172C8.4441 17.3287 8.82688 19.6724 8.41406 22.1484C6.97818 22.1829 5.72817 21.722 4.66406 20.7656C2.91406 19.1016 1.89063 17.0626 1.59374 14.6484C1.28537 12.4975 1.69162 10.4975 2.81249 8.64844C3.29067 7.99022 3.8766 7.45894 4.57031 7.05469Z" fill="black"/>
</g>
<g id="Group_2">
<path id="Vector_2" opacity="0.897" fill-rule="evenodd" clip-rule="evenodd" d="M13.9453 4.24219C14.3969 4.21703 14.561 4.42015 14.4374 4.85157C14.2109 5.0469 13.9843 5.24218 13.7578 5.43751C13.328 5.50782 13.1484 5.32815 13.2187 4.89844C13.4396 4.65399 13.6818 4.43523 13.9453 4.24219Z" fill="black"/>
</g>
<g id="Group_3">
<path id="Vector_3" opacity="0.908" fill-rule="evenodd" clip-rule="evenodd" d="M12.5391 5.60152C13.0142 5.55291 13.194 5.75602 13.0782 6.2109C12.7258 6.64205 12.4289 7.1108 12.1876 7.61715C11.8935 7.89207 11.6435 7.8608 11.4376 7.5234C11.4149 7.41029 11.4305 7.30093 11.4844 7.19527C11.7783 6.62246 12.1299 6.09123 12.5391 5.60152Z" fill="black"/>
</g>
<g id="Group_4">
<path id="Vector_4" opacity="0.901" fill-rule="evenodd" clip-rule="evenodd" d="M4.14839 18.2109C4.30278 18.1996 4.4434 18.2386 4.57027 18.3281C4.70166 18.536 4.85006 18.7313 5.01558 18.914C5.14875 19.3904 4.96908 19.5856 4.47652 19.4999C4.2452 19.2688 4.04989 19.0109 3.89058 18.7265C3.85194 18.4913 3.93788 18.3194 4.14839 18.2109Z" fill="black"/>
</g>
<g id="Group_5">
<path id="Vector_5" opacity="0.911" fill-rule="evenodd" clip-rule="evenodd" d="M5.36723 19.664C5.5087 19.6563 5.64933 19.6641 5.78911 19.6875C6.28383 20.0728 6.79162 20.44 7.31255 20.789C7.41642 21.216 7.25236 21.4114 6.82036 21.375C6.24501 21.0807 5.72161 20.7135 5.25005 20.2734C5.13783 20.0403 5.17692 19.8372 5.36723 19.664Z" fill="black"/>
</g>
</g>
<defs>
<clipPath id="clip0_231_5723">
<rect width="24" height="24" fill="white" transform="translate(0 0.046875)"/>
</clipPath>
</defs>
</svg>
