<svg width="25" height="25" viewBox="0 0 25 25" fill="none" xmlns="http://www.w3.org/2000/svg">
<g id="microwave-oven 1" clip-path="url(#clip0_231_5778)">
<g id="Group">
<path id="Vector" opacity="0.985" fill-rule="evenodd" clip-rule="evenodd" d="M24.6432 5.27344C24.6432 9.64842 24.6432 14.0235 24.6432 18.3984C24.6049 18.4755 24.5424 18.5302 24.4557 18.5625C24.0185 18.5859 23.581 18.5937 23.1432 18.5859C23.151 18.8988 23.1432 19.2113 23.1198 19.5234C23.1022 19.5664 23.0788 19.6055 23.0494 19.6406C22.3349 19.6946 21.6161 19.7181 20.8932 19.7109C20.2057 19.7031 19.5182 19.6953 18.8307 19.6875C18.6955 19.613 18.6252 19.4958 18.6198 19.3359C18.5964 19.0864 18.5885 18.8364 18.5963 18.5859C15.2526 18.5859 11.9088 18.5859 8.56506 18.5859C8.57284 18.852 8.56502 19.1176 8.54163 19.3828C8.52259 19.5232 8.45228 19.6247 8.33069 19.6875C6.9557 19.7188 5.58067 19.7188 4.20569 19.6875C4.11975 19.6641 4.06506 19.6094 4.04163 19.5234C4.01821 19.2113 4.01039 18.8988 4.01819 18.5859C3.7053 18.5782 3.3928 18.5859 3.08069 18.6094C2.96957 18.7362 2.84457 18.8456 2.70569 18.9375C2.08069 18.9688 1.45569 18.9688 0.830688 18.9375C0.743959 18.9052 0.681459 18.8505 0.643188 18.7734C0.643188 14.0235 0.643188 9.27342 0.643188 4.52344C0.681459 4.44639 0.743959 4.39171 0.830688 4.35938C1.33069 4.32812 1.83069 4.32812 2.33069 4.35938C2.59482 4.57657 2.84482 4.81092 3.08069 5.0625C10.2057 5.07811 17.3307 5.09377 24.4557 5.10938C24.5424 5.14172 24.6049 5.19638 24.6432 5.27344ZM1.39319 5.08594C1.51819 5.08594 1.64319 5.08594 1.76819 5.08594C1.76819 9.46092 1.76819 13.836 1.76819 18.2109C1.64319 18.2109 1.51819 18.2109 1.39319 18.2109C1.39319 13.836 1.39319 9.46092 1.39319 5.08594ZM2.51819 5.69531C3.01655 6.1702 3.50874 6.65461 3.99475 7.14844C4.026 10.2735 4.026 13.3984 3.99475 16.5234C3.51038 17.0078 3.026 17.4922 2.54163 17.9766C2.51819 13.8828 2.51037 9.78909 2.51819 5.69531ZM3.87756 5.88281C10.5416 5.83594 17.2135 5.82033 23.8932 5.83594C23.8932 9.83592 23.8932 13.836 23.8932 17.8359C17.2213 17.8438 10.5494 17.8359 3.87756 17.8125C4.11194 17.5781 4.34631 17.3438 4.58069 17.1094C9.2057 17.0938 13.8307 17.0781 18.4557 17.0625C18.5416 17.0391 18.5963 16.9844 18.6198 16.8984C18.651 13.5234 18.651 10.1484 18.6198 6.77344C18.5963 6.68752 18.5416 6.63281 18.4557 6.60938C13.8307 6.59377 9.2057 6.57811 4.58069 6.5625C4.35247 6.32639 4.11809 6.09985 3.87756 5.88281ZM4.81506 7.33594C9.17444 7.33594 13.5338 7.33594 17.8932 7.33594C17.8932 10.3359 17.8932 13.3359 17.8932 16.3359C17.3305 16.3438 16.768 16.3359 16.2057 16.3125C16.8978 15.6548 17.2025 14.8501 17.1198 13.8984C17.0963 13.8125 17.0416 13.7578 16.9557 13.7344C16.6436 13.7109 16.3311 13.7032 16.0182 13.7109C16.026 13.2888 16.0182 12.8669 15.9948 12.4453C15.7443 11.9179 15.3303 11.7225 14.7526 11.8594C14.4115 11.9872 14.2084 12.2293 14.1432 12.5859C13.7046 12.6015 13.2671 12.5858 12.8307 12.5391C12.3663 11.8486 11.7413 11.3565 10.9557 11.0625C10.2508 10.7549 9.51639 10.6455 8.75256 10.7344C7.2595 11.1656 6.55638 12.1578 6.64319 13.7109C6.3303 13.7032 6.01778 13.7109 5.70569 13.7344C5.61977 13.7578 5.56506 13.8125 5.54163 13.8984C5.45889 14.8501 5.76358 15.6548 6.45569 16.3125C5.90903 16.3359 5.36214 16.3438 4.81506 16.3359C4.81506 13.3359 4.81506 10.3359 4.81506 7.33594ZM20.1432 8.83594C20.8776 8.83594 21.6119 8.83594 22.3463 8.83594C22.3463 9.21094 22.3463 9.58594 22.3463 9.96094C21.6119 9.96094 20.8776 9.96094 20.1432 9.96094C20.1432 9.58594 20.1432 9.21094 20.1432 8.83594ZM8.84631 11.5078C9.93616 11.4675 10.9049 11.7878 11.7526 12.4688C12.0268 12.6972 12.1831 12.9862 12.2213 13.3359C12.2223 13.4515 12.1989 13.5608 12.151 13.6641C10.5841 13.7108 9.0138 13.7264 7.44006 13.7109C7.34341 12.6063 7.81216 11.8719 8.84631 11.5078ZM14.9869 12.6328C15.064 12.6228 15.1343 12.6384 15.1979 12.6797C15.2213 13.0231 15.2291 13.3668 15.2213 13.7109C14.4869 13.7109 13.7526 13.7109 13.0182 13.7109C13.0182 13.5859 13.0182 13.461 13.0182 13.3359C13.5809 13.3438 14.1434 13.3359 14.7057 13.3125C14.7916 13.2891 14.8463 13.2344 14.8698 13.1484C14.8747 12.9661 14.9138 12.7942 14.9869 12.6328ZM6.31506 14.5078C9.65092 14.4532 12.9947 14.4454 16.3463 14.4844C16.0369 15.6062 15.3026 16.2156 14.1432 16.3125C12.2682 16.3438 10.3932 16.3438 8.51819 16.3125C7.366 16.2146 6.63166 15.613 6.31506 14.5078ZM4.81506 18.5859C5.79944 18.5859 6.78381 18.5859 7.76819 18.5859C7.76819 18.711 7.76819 18.8359 7.76819 18.9609C6.78381 18.9609 5.79944 18.9609 4.81506 18.9609C4.81506 18.8359 4.81506 18.711 4.81506 18.5859ZM19.3932 18.5859C20.3776 18.5859 21.3619 18.5859 22.3463 18.5859C22.3463 18.711 22.3463 18.8359 22.3463 18.9609C21.3619 18.9609 20.3776 18.9609 19.3932 18.9609C19.3932 18.8359 19.3932 18.711 19.3932 18.5859Z" fill="black"/>
</g>
<g id="Group_2">
<path id="Vector_2" opacity="0.917" fill-rule="evenodd" clip-rule="evenodd" d="M8.70575 8.08591C9.16653 8.00759 9.3462 8.19509 9.24481 8.64841C9.22301 8.71549 9.18392 8.77015 9.12762 8.81248C9.45767 9.20219 9.52798 9.63185 9.33856 10.1015C9.1774 10.3163 8.96647 10.3866 8.70575 10.3125C8.61983 10.289 8.56512 10.2343 8.54169 10.1484C8.48773 9.94549 8.52678 9.76582 8.65887 9.60935C8.33028 9.21869 8.25997 8.78904 8.44794 8.32029C8.52903 8.23113 8.61495 8.15299 8.70575 8.08591Z" fill="black"/>
</g>
<g id="Group_3">
<path id="Vector_3" opacity="0.917" fill-rule="evenodd" clip-rule="evenodd" d="M10.9557 8.08591C11.4164 8.00759 11.5961 8.19509 11.4947 8.64841C11.4729 8.71549 11.4338 8.77015 11.3775 8.81248C11.7061 9.20313 11.7764 9.63279 11.5885 10.1015C11.4273 10.3163 11.2164 10.3866 10.9557 10.3125C10.8697 10.289 10.815 10.2343 10.7916 10.1484C10.7376 9.94549 10.7767 9.76582 10.9088 9.60935C10.5787 9.21963 10.5084 8.78998 10.6978 8.32029C10.7789 8.23113 10.8649 8.15299 10.9557 8.08591Z" fill="black"/>
</g>
<g id="Group_4">
<path id="Vector_4" opacity="0.917" fill-rule="evenodd" clip-rule="evenodd" d="M13.2057 8.08591C13.6664 8.00759 13.8461 8.19509 13.7447 8.64841C13.7229 8.71549 13.6838 8.77015 13.6275 8.81248C13.9561 9.20313 14.0264 9.63279 13.8385 10.1015C13.6773 10.3163 13.4664 10.3866 13.2057 10.3125C13.1197 10.289 13.065 10.2343 13.0416 10.1484C12.9876 9.94549 13.0267 9.76582 13.1588 9.60935C12.8287 9.21963 12.7584 8.78998 12.9478 8.32029C13.0289 8.23113 13.1149 8.15299 13.2057 8.08591Z" fill="black"/>
</g>
<g id="Group_5">
<path id="Vector_5" opacity="0.974" fill-rule="evenodd" clip-rule="evenodd" d="M19.5807 8.08593C20.7411 8.06338 21.8974 8.08682 23.0495 8.15624C23.0788 8.1914 23.1022 8.23049 23.1198 8.27343C23.1276 8.64843 23.1354 9.02343 23.1432 9.39843C23.1497 9.80924 23.1263 10.2155 23.0729 10.6172C23.0377 10.6465 22.9986 10.67 22.9557 10.6875C22.3932 10.6953 21.8307 10.7031 21.2682 10.7109C20.6702 10.7179 20.0764 10.6945 19.487 10.6406C19.4231 10.5494 19.384 10.4479 19.3698 10.3359C19.3385 9.71094 19.3385 9.08591 19.3698 8.46093C19.3813 8.29663 19.4516 8.17166 19.5807 8.08593ZM20.1432 8.83593C20.1432 9.21093 20.1432 9.58593 20.1432 9.96093C20.8776 9.96093 21.6119 9.96093 22.3463 9.96093C22.3463 9.58593 22.3463 9.21093 22.3463 8.83593C21.6119 8.83593 20.8776 8.83593 20.1432 8.83593Z" fill="black"/>
</g>
<g id="Group_6">
<path id="Vector_6" opacity="0.887" fill-rule="evenodd" clip-rule="evenodd" d="M19.5807 11.461C20.1422 11.4232 20.2985 11.6498 20.0494 12.1406C19.5766 12.3081 19.3656 12.1441 19.4166 11.6485C19.4811 11.592 19.5358 11.5295 19.5807 11.461Z" fill="black"/>
</g>
<g id="Group_7">
<path id="Vector_7" opacity="0.887" fill-rule="evenodd" clip-rule="evenodd" d="M21.0807 11.461C21.6422 11.4232 21.7985 11.6498 21.5494 12.1406C21.0766 12.3081 20.8656 12.1441 20.9166 11.6485C20.9811 11.592 21.0358 11.5295 21.0807 11.461Z" fill="black"/>
</g>
<g id="Group_8">
<path id="Vector_8" opacity="0.887" fill-rule="evenodd" clip-rule="evenodd" d="M22.5807 11.461C23.1422 11.4232 23.2985 11.6498 23.0494 12.1406C22.5766 12.3081 22.3656 12.1441 22.4166 11.6485C22.4811 11.592 22.5358 11.5295 22.5807 11.461Z" fill="black"/>
</g>
<g id="Group_9">
<path id="Vector_9" opacity="0.879" fill-rule="evenodd" clip-rule="evenodd" d="M19.5807 12.961C20.1422 12.9232 20.2985 13.1498 20.0494 13.6406C19.5713 13.8344 19.3603 13.6703 19.4166 13.1485C19.4811 13.092 19.5358 13.0295 19.5807 12.961Z" fill="black"/>
</g>
<g id="Group_10">
<path id="Vector_10" opacity="0.879" fill-rule="evenodd" clip-rule="evenodd" d="M21.0807 12.961C21.6422 12.9232 21.7985 13.1498 21.5494 13.6406C21.0713 13.8344 20.8603 13.6703 20.9166 13.1485C20.9811 13.092 21.0358 13.0295 21.0807 12.961Z" fill="black"/>
</g>
<g id="Group_11">
<path id="Vector_11" opacity="0.879" fill-rule="evenodd" clip-rule="evenodd" d="M22.5808 12.9609C23.0741 12.8991 23.2537 13.1022 23.1198 13.5703C22.879 13.8043 22.6446 13.7886 22.4167 13.5234C22.3507 13.2957 22.4054 13.1082 22.5808 12.9609Z" fill="black"/>
</g>
<g id="Group_12">
<path id="Vector_12" opacity="0.875" fill-rule="evenodd" clip-rule="evenodd" d="M19.5808 14.4609C20.0741 14.3991 20.2537 14.6022 20.1198 15.0703C19.8769 15.3035 19.6425 15.2878 19.4167 15.0234C19.3507 14.7957 19.4054 14.6082 19.5808 14.4609Z" fill="black"/>
</g>
<g id="Group_13">
<path id="Vector_13" opacity="0.875" fill-rule="evenodd" clip-rule="evenodd" d="M21.0808 14.4609C21.5741 14.3991 21.7537 14.6022 21.6198 15.0703C21.3769 15.3035 21.1425 15.2878 20.9167 15.0234C20.8507 14.7957 20.9054 14.6082 21.0808 14.4609Z" fill="black"/>
</g>
<g id="Group_14">
<path id="Vector_14" opacity="0.875" fill-rule="evenodd" clip-rule="evenodd" d="M22.5808 14.4609C23.0741 14.3991 23.2537 14.6022 23.1198 15.0703C22.8769 15.3035 22.6425 15.2878 22.4167 15.0234C22.3507 14.7957 22.4054 14.6082 22.5808 14.4609Z" fill="black"/>
</g>
</g>
<defs>
<clipPath id="clip0_231_5778">
<rect width="24" height="24" fill="white" transform="translate(0.666626 0.046875)"/>
</clipPath>
</defs>
</svg>
