<svg width="25" height="24" viewBox="0 0 25 24" fill="none" xmlns="http://www.w3.org/2000/svg">
<g id="coffee 1" clip-path="url(#clip0_231_5700)">
<g id="Group">
<path id="Vector" opacity="0.963" fill-rule="evenodd" clip-rule="evenodd" d="M7.15881 -0.0235596C7.67444 -0.0235596 8.19006 -0.0235596 8.70569 -0.0235596C8.72163 0.322545 8.76067 0.666295 8.82288 1.00769C8.98858 1.48917 9.14481 1.97354 9.29163 2.46082C9.44786 3.35144 9.44786 4.24207 9.29163 5.13269C9.13572 5.63224 8.97944 6.13225 8.82288 6.63269C8.75299 6.9731 8.71394 7.31683 8.70569 7.66394C8.18913 7.6795 7.6735 7.66389 7.15881 7.61707C7.1883 7.162 7.243 6.70891 7.32288 6.25769C7.46983 5.76991 7.62611 5.28555 7.79163 4.80457C7.94533 4.133 7.94533 3.46113 7.79163 2.78894C7.62611 2.30797 7.46983 1.8236 7.32288 1.33582C7.24295 0.883209 7.1883 0.430084 7.15881 -0.0235596Z" fill="#0F172A"/>
</g>
<g id="Group_2">
<path id="Vector_2" opacity="0.963" fill-rule="evenodd" clip-rule="evenodd" d="M10.6276 -0.0235596C11.1432 -0.0235596 11.6588 -0.0235596 12.1744 -0.0235596C12.1761 0.324243 12.2152 0.667992 12.2916 1.00769C12.4571 1.48866 12.6134 1.97303 12.7604 2.46082C12.9166 3.35144 12.9166 4.24207 12.7604 5.13269C12.6134 5.62047 12.4571 6.10483 12.2916 6.58582C12.2108 6.9408 12.1717 7.30019 12.1744 7.66394C11.6588 7.66394 11.1432 7.66394 10.6276 7.66394C10.6552 7.27249 10.6943 6.88188 10.7448 6.49207C10.8883 5.9208 11.0602 5.3583 11.2604 4.80457C11.4123 4.1479 11.4123 3.49165 11.2604 2.83582C11.0693 2.26254 10.8974 1.68442 10.7448 1.10144C10.6964 0.726844 10.6573 0.351844 10.6276 -0.0235596Z" fill="#0F172A"/>
</g>
<g id="Group_3">
<path id="Vector_3" opacity="0.975" fill-rule="evenodd" clip-rule="evenodd" d="M14.0026 23.9764C11.362 23.9764 8.7213 23.9764 6.08069 23.9764C3.13469 22.41 1.47063 19.9569 1.0885 16.6171C1.06506 14.1952 1.05725 11.7734 1.06506 9.35144C7.04945 9.35144 13.0338 9.35144 19.0182 9.35144C19.0182 9.77332 19.0182 10.1952 19.0182 10.6171C20.6539 10.0827 22.068 10.4264 23.2604 11.6483C24.0409 12.7076 24.3534 13.8951 24.1979 15.2108C23.8823 17.5397 22.7027 19.2663 20.6588 20.3905C19.6781 20.8463 18.6625 20.9557 17.6119 20.7186C16.6941 22.1291 15.4909 23.215 14.0026 23.9764ZM2.56506 10.8514C7.53381 10.8514 12.5026 10.8514 17.4713 10.8514C17.4791 12.7734 17.4713 14.6952 17.4479 16.6171C17.1275 19.2323 15.8229 21.1776 13.5338 22.453C11.2057 22.4843 8.87758 22.4843 6.54944 22.453C4.0363 21.0303 2.71598 18.8662 2.5885 15.9608C2.56506 14.2578 2.55725 12.5546 2.56506 10.8514ZM20.0494 11.9296C21.516 11.8567 22.3832 12.5442 22.651 13.9921C22.7849 15.9504 22.074 17.5207 20.5182 18.703C19.8685 19.1671 19.1498 19.3468 18.3619 19.2421C18.6452 18.5152 18.8405 17.7652 18.9479 16.9921C19.0061 15.4305 19.0374 13.868 19.0416 12.3046C19.3698 12.1438 19.7058 12.0188 20.0494 11.9296Z" fill="#0F172A"/>
</g>
</g>
<defs>
<clipPath id="clip0_231_5700">
<rect width="24" height="24" fill="white" transform="translate(0.666626)"/>
</clipPath>
</defs>
</svg>
