<svg width="24" height="24" viewBox="0 0 24 24" fill="none" xmlns="http://www.w3.org/2000/svg">
<g id="wifi 1">
<g id="Group">
<path id="Vector" opacity="0.985" fill-rule="evenodd" clip-rule="evenodd" d="M11.6946 2.41394C16.1039 2.42058 19.8618 3.96745 22.9681 7.05457C23.2075 7.55116 23.0903 7.93394 22.6165 8.203C22.3109 8.30632 22.0296 8.25944 21.7728 8.06238C19.0608 5.41057 15.7952 4.04336 11.9759 3.96082C8.09638 4.0524 4.78387 5.45083 2.0384 8.15613C1.25554 8.39378 0.872734 8.10475 0.889961 7.28894C0.912034 7.2071 0.943286 7.12896 0.983711 7.05457C3.93779 4.10532 7.5081 2.55844 11.6946 2.41394Z" fill="#0F172A"/>
</g>
<g id="Group_2">
<path id="Vector_2" opacity="0.983" fill-rule="evenodd" clip-rule="evenodd" d="M11.1798 7.00761C14.7221 6.84664 17.7611 7.98725 20.2969 10.4295C20.6524 10.9706 20.5508 11.4003 19.9923 11.7185C19.6506 11.8015 19.3537 11.7233 19.1016 11.4842C16.5824 9.09256 13.598 8.17067 10.1485 8.71854C8.01809 9.13507 6.18996 10.1038 4.66413 11.6248C4.18824 11.859 3.80543 11.7574 3.51569 11.3201C3.415 11.063 3.43063 10.8131 3.56257 10.5701C5.64748 8.43022 8.18655 7.24273 11.1798 7.00761Z" fill="#0F172A"/>
</g>
<g id="Group_3">
<path id="Vector_3" opacity="0.985" fill-rule="evenodd" clip-rule="evenodd" d="M11.6489 11.5543C13.7773 11.5159 15.5976 12.2347 17.1098 13.7106C17.4099 14.2472 17.2927 14.6613 16.7582 14.9528C16.5863 14.984 16.4145 14.984 16.2426 14.9528C15.8028 14.591 15.3497 14.2472 14.8832 13.9215C12.9457 12.8278 11.0082 12.8278 9.07073 13.9215C8.60428 14.2472 8.15118 14.591 7.71135 14.9528C6.99323 15.0315 6.65728 14.7112 6.70354 13.9918C6.75042 13.8981 6.79729 13.8043 6.84417 13.7106C8.18282 12.4075 9.7844 11.6888 11.6489 11.5543Z" fill="#0F172A"/>
</g>
<g id="Group_4">
<path id="Vector_4" opacity="0.986" fill-rule="evenodd" clip-rule="evenodd" d="M11.6953 16.4763C12.8369 16.3925 13.5792 16.8925 13.9218 17.9763C14.0611 19.227 13.5221 20.0004 12.3046 20.2966C11.1072 20.3581 10.3806 19.8034 10.1249 18.6326C10.0849 17.4942 10.6083 16.7754 11.6953 16.4763Z" fill="#0F172A"/>
</g>
</g>
</svg>
