<svg width="24" height="25" viewBox="0 0 24 25" fill="none" xmlns="http://www.w3.org/2000/svg">
<g id="toaster 1" clip-path="url(#clip0_231_5764)">
<g id="Group">
<path id="Vector" opacity="0.965" fill-rule="evenodd" clip-rule="evenodd" d="M10.4766 0.0234375C11.4765 0.0234375 12.4766 0.0234375 13.4766 0.0234375C14.8909 0.118644 16.2815 0.376457 17.6484 0.796875C18.3573 1.03787 18.9901 1.40506 19.5469 1.89844C20.2086 2.7938 20.1226 3.61411 19.2891 4.35938C19.0432 4.541 18.7853 4.70506 18.5156 4.85156C18.4922 6.24211 18.4844 7.6327 18.4922 9.02344C19.6973 8.78053 20.7051 9.10866 21.5156 10.0078C21.8272 10.4592 21.9913 10.9592 22.0078 11.5078C22.5549 11.5 23.1018 11.5078 23.6484 11.5312C23.7947 11.5766 23.9041 11.6625 23.9766 11.7891C23.9766 12.6172 23.9766 13.4453 23.9766 14.2734C23.8708 14.387 23.7458 14.473 23.6016 14.5312C23.0706 14.5547 22.5393 14.5625 22.0078 14.5547C22.0078 16.7109 22.0078 18.8672 22.0078 21.0234C22.2427 21.0157 22.4771 21.0235 22.7109 21.0469C22.846 21.1055 22.9319 21.207 22.9688 21.3516C23 22.1328 23 22.914 22.9688 23.6953C22.9234 23.8416 22.8375 23.951 22.7109 24.0234C15.5547 24.0234 8.39845 24.0234 1.24219 24.0234C1.11563 23.951 1.02969 23.8416 0.984376 23.6953C0.953125 22.914 0.953125 22.1328 0.984376 21.3516C1.02122 21.207 1.10716 21.1055 1.24219 21.0469C1.47604 21.0235 1.71042 21.0157 1.94531 21.0234C1.9375 17.7578 1.94531 14.4922 1.96875 11.2266C2.17529 10.0546 2.85497 9.32808 4.00781 9.04688C4.49194 9.02344 4.9763 9.01566 5.46094 9.02344C5.46877 7.6327 5.46094 6.24211 5.4375 4.85156C4.79958 4.57303 4.33085 4.1199 4.03125 3.49219C3.85198 2.6709 4.10979 2.02246 4.80469 1.54688C5.8245 0.909914 6.93389 0.503666 8.13281 0.328125C8.91764 0.200253 9.69891 0.0986906 10.4766 0.0234375ZM10.8516 1.05469C12.5867 0.983377 14.3055 1.11619 16.0078 1.45312C16.9152 1.62585 17.7589 1.95397 18.5391 2.4375C18.7449 2.58822 18.8855 2.78353 18.9609 3.02344C18.9015 3.24722 18.7765 3.4269 18.5859 3.5625C18.2145 3.75985 17.8629 3.98641 17.5313 4.24219C17.4636 5.83463 17.4402 7.42838 17.4609 9.02344C13.8047 9.02344 10.1484 9.02344 6.49219 9.02344C6.50002 7.46086 6.49219 5.89838 6.46875 4.33594C6.41616 4.23638 6.34584 4.15045 6.25781 4.07812C5.82239 3.89578 5.43956 3.63797 5.10938 3.30469C4.95314 3.11719 4.95314 2.92969 5.10938 2.74219C5.66409 2.22639 6.31256 1.87483 7.05469 1.6875C8.30489 1.34371 9.57052 1.13277 10.8516 1.05469ZM4.19531 10.0547C9.38283 10.0469 14.5703 10.0547 19.7578 10.0781C20.5025 10.2914 20.9009 10.7836 20.9531 11.5547C20.9766 14.7109 20.9844 17.8672 20.9766 21.0234C14.9766 21.0234 8.97656 21.0234 2.97656 21.0234C2.96875 17.8672 2.97656 14.7109 3 11.5547C3.0614 10.7827 3.45984 10.2827 4.19531 10.0547ZM22.0078 12.5391C22.3203 12.5391 22.6328 12.5391 22.9453 12.5391C22.9453 12.8672 22.9453 13.1953 22.9453 13.5234C22.6328 13.5234 22.3203 13.5234 22.0078 13.5234C22.0078 13.1953 22.0078 12.8672 22.0078 12.5391ZM14.2734 18.0703C14.7651 18.0228 14.976 18.2416 14.9063 18.7266C14.5656 19.122 14.2688 19.0907 14.0156 18.6328C13.9888 18.3926 14.0748 18.2051 14.2734 18.0703ZM18.3047 18.0703C18.6278 18.0112 18.8387 18.1362 18.9375 18.4453C18.9157 18.89 18.6891 19.054 18.2578 18.9375C18.0397 18.7996 17.9694 18.6043 18.0469 18.3516C18.1106 18.2333 18.1965 18.1395 18.3047 18.0703ZM1.99219 22.0547C8.64844 22.0547 15.3047 22.0547 21.9609 22.0547C21.9609 22.3672 21.9609 22.6797 21.9609 22.9922C15.3047 22.9922 8.64844 22.9922 1.99219 22.9922C1.99219 22.6797 1.99219 22.3672 1.99219 22.0547Z" fill="black"/>
</g>
<g id="Group_2">
<path id="Vector_2" opacity="0.954" fill-rule="evenodd" clip-rule="evenodd" d="M10.3359 10.9922C11.4298 10.9844 12.5235 10.9922 13.6171 11.0156C14.0099 11.2074 14.0958 11.4965 13.8749 11.8828C13.8326 11.9391 13.778 11.9782 13.7109 12C12.5546 12.0313 11.3984 12.0313 10.2421 12C9.96225 11.8033 9.89193 11.5455 10.0312 11.2266C10.1233 11.1305 10.2249 11.0523 10.3359 10.9922Z" fill="black"/>
</g>
<g id="Group_3">
<path id="Vector_3" opacity="0.956" fill-rule="evenodd" clip-rule="evenodd" d="M10.289 13.0078C11.4141 13 12.5391 13.0078 13.664 13.0313C13.9501 13.1738 14.0516 13.4004 13.9687 13.7109C13.8984 13.8437 13.7968 13.9453 13.664 14.0156C12.539 14.0469 11.414 14.0469 10.289 14.0156C9.96493 13.8389 9.87901 13.5811 10.0312 13.2422C10.1123 13.153 10.1982 13.0749 10.289 13.0078Z" fill="black"/>
</g>
<g id="Group_4">
<path id="Vector_4" opacity="0.944" fill-rule="evenodd" clip-rule="evenodd" d="M14.2735 16.9922C15.2051 16.9633 15.7755 17.4008 15.9844 18.3047C15.991 19.5169 15.3894 20.0872 14.1797 20.0156C13.2771 19.7528 12.8786 19.1512 12.9844 18.2109C13.1516 17.5227 13.5813 17.1164 14.2735 16.9922ZM14.2735 18.0703C14.0748 18.2051 13.9889 18.3926 14.0157 18.6328C14.2688 19.0907 14.5657 19.122 14.9063 18.7266C14.976 18.2416 14.7651 18.0228 14.2735 18.0703Z" fill="black"/>
</g>
<g id="Group_5">
<path id="Vector_5" opacity="0.944" fill-rule="evenodd" clip-rule="evenodd" d="M18.2579 16.9922C19.4689 17.0078 20.0393 17.6172 19.9688 18.8203C19.7063 19.7224 19.1048 20.1209 18.1641 20.0156C17.2111 19.712 16.8283 19.0635 17.0157 18.0703C17.2373 17.481 17.6514 17.1216 18.2579 16.9922ZM18.3047 18.0703C18.1966 18.1395 18.1107 18.2333 18.0469 18.3516C17.9694 18.6043 18.0398 18.7996 18.2579 18.9375C18.6892 19.054 18.9157 18.89 18.9376 18.4453C18.8387 18.1362 18.6278 18.0112 18.3047 18.0703Z" fill="black"/>
</g>
</g>
<defs>
<clipPath id="clip0_231_5764">
<rect width="24" height="24" fill="white" transform="translate(0 0.046875)"/>
</clipPath>
</defs>
</svg>
