<svg width="25" height="24" viewBox="0 0 25 24" fill="none" xmlns="http://www.w3.org/2000/svg">
<g id="2024-04-24 14_11_43-Juicer Icon - Free PNG &#38; SVG 3813181 - Noun Project 1">
<g id="Group">
<path id="Vector" opacity="0.995" fill-rule="evenodd" clip-rule="evenodd" d="M17.1482 8.83715C16.8077 8.83715 16.4673 8.83715 16.1269 8.83715C16.1041 9.09553 16.1284 9.33867 16.1998 9.56663C17.0026 9.55445 17.8051 9.56663 18.6071 9.60311C20.7876 10.2791 21.6995 11.7503 21.3427 14.0165C21.2435 14.1336 21.1341 14.243 21.0144 14.3447C20.1633 14.3934 19.3123 14.3934 18.4612 14.3447C18.2014 14.2493 18.0555 14.067 18.0235 13.7976C18.0235 13.5058 18.0235 13.214 18.0235 12.9223C17.3913 12.9223 16.7591 12.9223 16.1269 12.9223C16.1269 15.3538 16.1269 17.7855 16.1269 20.2171C16.1021 20.4487 15.9805 20.6067 15.7621 20.6913C12.6922 20.7634 9.62836 20.739 6.57065 20.6183C6.47673 20.5154 6.39163 20.406 6.31534 20.29C6.29102 19.4147 6.2667 18.5393 6.24239 17.6639C6.19375 17.518 6.14513 17.3721 6.09649 17.2262C5.07521 15.7672 4.05394 14.3083 3.03266 12.8493C2.95971 12.6548 2.88676 12.4603 2.81382 12.2657C2.70911 11.1514 2.67263 10.0328 2.70439 8.9101C1.4229 9.0495 0.973048 8.49028 1.35485 7.23229C1.42268 7.08257 1.53211 6.97314 1.68312 6.90402C4.04165 6.86754 6.40031 6.85539 8.7591 6.86754C8.7591 6.08943 8.7591 5.31131 8.7591 4.5332C7.97039 4.64416 7.60568 4.30373 7.66488 3.51192C7.5941 3.07759 7.74002 2.74932 8.10257 2.52712C9.00224 2.51496 9.90199 2.5028 10.8017 2.49064C11.7566 2.47977 12.705 2.51624 13.6466 2.60007C13.7916 2.69628 13.8767 2.83002 13.902 3.00128C13.964 3.42096 13.9397 3.83434 13.829 4.2414C13.5566 4.50373 13.2283 4.60099 12.8442 4.5332C12.8442 5.31131 12.8442 6.08943 12.8442 6.86754C14.3034 6.85539 15.7624 6.86754 17.2211 6.90402C17.5392 7.14129 17.6608 7.4574 17.5859 7.85235C17.5879 8.11423 17.5514 8.36955 17.4764 8.6183C17.3941 8.73801 17.2846 8.81096 17.1482 8.83715ZM8.39436 3.22013C9.99923 3.22013 11.6041 3.22013 13.209 3.22013C13.209 3.41466 13.209 3.60918 13.209 3.80371C11.6041 3.80371 9.99923 3.80371 8.39436 3.80371C8.39436 3.60918 8.39436 3.41466 8.39436 3.22013ZM9.48859 4.5332C10.364 4.5332 11.2393 4.5332 12.1147 4.5332C12.1147 5.31131 12.1147 6.08943 12.1147 6.86754C11.2393 6.86754 10.364 6.86754 9.48859 6.86754C9.48859 6.08943 9.48859 5.31131 9.48859 4.5332ZM1.97491 7.59703C6.9354 7.59703 11.8959 7.59703 16.8564 7.59703C16.8564 7.79158 16.8564 7.98606 16.8564 8.18061C11.8959 8.18061 6.9354 8.18061 1.97491 8.18061C1.97491 7.98606 1.97491 7.79158 1.97491 7.59703ZM6.27886 8.9101C6.30305 11.3299 6.27874 13.7372 6.20591 16.132C5.46001 14.9844 4.66973 13.8658 3.83509 12.7764C3.66022 12.4755 3.52648 12.1594 3.43388 11.828C3.43388 10.8554 3.43388 9.88272 3.43388 8.9101C4.38221 8.9101 5.33053 8.9101 6.27886 8.9101ZM7.00835 8.9101C9.82904 8.9101 12.6497 8.9101 15.4704 8.9101C15.4704 12.1685 15.4704 15.4268 15.4704 18.6852C12.6497 18.6852 9.82904 18.6852 7.00835 18.6852C7.00835 15.4268 7.00835 12.1685 7.00835 8.9101ZM20.7226 13.6517C20.0661 13.6517 19.4096 13.6517 18.753 13.6517C18.7759 13.3934 18.7515 13.1502 18.6801 12.9223C18.6637 12.6259 18.5178 12.4193 18.2424 12.3022C17.562 12.2657 16.8811 12.2536 16.1998 12.2657C16.1998 11.5849 16.1998 10.904 16.1998 10.2232C16.9812 10.2004 17.7593 10.2369 18.5342 10.3326C20.1094 10.8666 20.8389 11.9729 20.7226 13.6517ZM10.291 10.5879C10.6323 10.5758 10.9727 10.588 11.3123 10.6244C11.6431 10.7948 11.6674 10.9893 11.3852 11.208C10.9962 11.2566 10.6071 11.2566 10.2181 11.208C9.94678 10.9796 9.97107 10.7729 10.291 10.5879ZM10.5099 13.1411C11.8674 13.2055 12.3415 13.8863 11.9324 15.1837C11.4192 15.7971 10.7992 15.9309 10.0722 15.5849C9.43446 15.0328 9.32504 14.3884 9.74391 13.6517C9.96261 13.4155 10.2179 13.2453 10.5099 13.1411ZM7.00835 19.4147C9.82904 19.4147 12.6497 19.4147 15.4704 19.4147C15.4704 19.6092 15.4704 19.8037 15.4704 19.9982C12.6497 19.9982 9.82904 19.9982 7.00835 19.9982C7.00835 19.8037 7.00835 19.6092 7.00835 19.4147Z" fill="#0D0D0D"/>
</g>
<g id="Group_2">
<path id="Vector_2" fill-rule="evenodd" clip-rule="evenodd" d="M8.39429 3.22002C10.0108 3.14727 11.64 3.12294 13.2818 3.14708C13.2818 3.39023 13.2818 3.6334 13.2818 3.87656C11.64 3.90069 10.0108 3.87637 8.39429 3.80361C9.99915 3.80361 11.604 3.80361 13.2089 3.80361C13.2089 3.60908 13.2089 3.41456 13.2089 3.22002C11.604 3.22002 9.99915 3.22002 8.39429 3.22002Z" fill="#909091"/>
</g>
<g id="Group_3">
<path id="Vector_3" opacity="0.62" fill-rule="evenodd" clip-rule="evenodd" d="M1.97485 7.59694C6.94735 7.52406 11.9322 7.4997 16.9293 7.52399C16.9293 7.76713 16.9293 8.01034 16.9293 8.25347C11.9322 8.27777 6.94735 8.2534 1.97485 8.18053C6.93534 8.18053 11.8958 8.18053 16.8563 8.18053C16.8563 7.98597 16.8563 7.79149 16.8563 7.59694C11.8958 7.59694 6.93534 7.59694 1.97485 7.59694Z" fill="#9C9C9D"/>
</g>
<g id="Group_4">
<path id="Vector_4" opacity="0.33" fill-rule="evenodd" clip-rule="evenodd" d="M6.27868 8.91002C5.33035 8.91002 4.38202 8.91002 3.4337 8.91002C3.4337 9.88264 3.4337 10.8553 3.4337 11.828C3.36106 10.8439 3.33675 9.84697 3.36075 8.83707C4.34632 8.81307 5.31896 8.83736 6.27868 8.91002Z" fill="#6F6F70"/>
</g>
<g id="Group_5">
<path id="Vector_5" opacity="0.376" fill-rule="evenodd" clip-rule="evenodd" d="M6.27876 8.91003C6.36369 11.3537 6.37585 13.8095 6.31523 16.2778C6.26291 16.2381 6.22644 16.1895 6.20581 16.1319C6.27863 13.7371 6.30295 11.3298 6.27876 8.91003Z" fill="#7B7B7C"/>
</g>
<g id="Group_6">
<path id="Vector_6" opacity="0.282" fill-rule="evenodd" clip-rule="evenodd" d="M17.148 8.83704C16.8464 8.90889 16.5302 8.93318 16.1996 8.90998C16.1996 9.12883 16.1996 9.34767 16.1996 9.56652C16.1282 9.33856 16.1039 9.09542 16.1267 8.83704C16.4671 8.83704 16.8075 8.83704 17.148 8.83704Z" fill="#757576"/>
</g>
<g id="Group_7">
<path id="Vector_7" opacity="0.987" fill-rule="evenodd" clip-rule="evenodd" d="M9.9262 9.93135C10.5664 9.89918 11.1986 9.93566 11.8229 10.0408C12.3792 10.4877 12.4642 11.0105 12.0782 11.6092C11.7162 11.9295 11.2907 12.0511 10.8016 11.9739C9.69197 12.0924 9.2178 11.606 9.37909 10.5149C9.52703 10.2821 9.7094 10.0875 9.9262 9.93135ZM10.2909 10.5879C9.97099 10.7729 9.9467 10.9795 10.218 11.2079C10.607 11.2566 10.9961 11.2566 11.3852 11.2079C11.6673 10.9892 11.643 10.7948 11.3122 10.6244C10.9726 10.588 10.6323 10.5758 10.2909 10.5879Z" fill="white"/>
</g>
<g id="Group_8">
<path id="Vector_8" opacity="0.986" fill-rule="evenodd" clip-rule="evenodd" d="M10.5097 12.4116C12.1229 12.4563 12.8888 13.2831 12.8076 14.8919C12.4392 16.1038 11.6245 16.6265 10.3638 16.4603C9.17465 16.1127 8.65191 15.3225 8.79539 14.0894C9.02175 13.17 9.59316 12.6107 10.5097 12.4116ZM10.5097 13.1411C10.2177 13.2453 9.96242 13.4155 9.74372 13.6517C9.32485 14.3884 9.43428 15.0328 10.072 15.5849C10.799 15.9309 11.4191 15.7972 11.9322 15.1837C12.3413 13.8863 11.8672 13.2055 10.5097 13.1411Z" fill="white"/>
</g>
<g id="Group_9">
<path id="Vector_9" opacity="0.047" fill-rule="evenodd" clip-rule="evenodd" d="M18.0234 13.7976C17.9517 13.5451 17.9274 13.2776 17.9504 12.9952C17.3668 12.9952 16.7832 12.9952 16.1997 12.9952C16.2239 15.415 16.1995 17.8223 16.1267 20.2171C16.1267 17.7855 16.1267 15.3538 16.1267 12.9222C16.759 12.9222 17.3911 12.9222 18.0234 12.9222C18.0234 13.214 18.0234 13.5058 18.0234 13.7976Z" fill="#ADADAF"/>
</g>
<g id="Group_10">
<path id="Vector_10" opacity="0.267" fill-rule="evenodd" clip-rule="evenodd" d="M18.6799 12.9222C18.7513 13.1502 18.7757 13.3933 18.7529 13.6517C19.4094 13.6517 20.0659 13.6517 20.7225 13.6517C20.0549 13.7242 19.374 13.7485 18.6799 13.7247C18.6799 13.4572 18.6799 13.1897 18.6799 12.9222Z" fill="#99999A"/>
</g>
<g id="Group_11">
<path id="Vector_11" opacity="0.993" fill-rule="evenodd" clip-rule="evenodd" d="M17.5857 16.4967C17.5699 16.1517 17.5943 15.8112 17.6587 15.4754C18.9907 15.3914 20.3281 15.3792 21.6708 15.439C21.7377 15.4662 21.7985 15.5027 21.8532 15.5484C21.8139 17.2309 21.6923 18.9087 21.4885 20.5818C21.452 20.6183 21.4155 20.6548 21.379 20.6912C20.2605 20.7399 19.1419 20.7399 18.0234 20.6912C17.9086 20.558 17.8478 20.4 17.8411 20.2171C17.7421 18.9773 17.6569 17.7372 17.5857 16.4967ZM18.2423 16.132C19.2149 16.132 20.1876 16.132 21.1602 16.132C21.1767 16.3325 21.1524 16.5271 21.0873 16.7156C20.1642 16.8006 19.2402 16.8128 18.3152 16.752C18.2464 16.5537 18.2221 16.347 18.2423 16.132ZM21.0143 17.8098C20.9603 18.5389 20.9117 19.2684 20.8684 19.9982C20.0903 19.9982 19.3122 19.9982 18.5341 19.9982C18.524 19.3626 18.4753 18.7304 18.3882 18.1016C18.3882 17.907 18.3882 17.7125 18.3882 17.518C19.2635 17.518 20.1389 17.518 21.0143 17.518C21.0143 17.6152 21.0143 17.7125 21.0143 17.8098Z" fill="#121212"/>
</g>
<g id="Group_12">
<path id="Vector_12" opacity="0.78" fill-rule="evenodd" clip-rule="evenodd" d="M17.6588 15.4753C17.5944 15.8111 17.5701 16.1516 17.5859 16.4966C17.5022 16.1942 17.49 15.878 17.5494 15.5483C17.5773 15.5077 17.6138 15.4834 17.6588 15.4753Z" fill="#414142"/>
</g>
<g id="Group_13">
<path id="Vector_13" opacity="0.388" fill-rule="evenodd" clip-rule="evenodd" d="M21.0144 17.8097C21.0144 17.7124 21.0144 17.6151 21.0144 17.5179C20.139 17.5179 19.2636 17.5179 18.3883 17.5179C18.3883 17.7124 18.3883 17.9069 18.3883 18.1015C18.317 17.8982 18.2927 17.6793 18.3153 17.4449C19.2393 17.4449 20.1633 17.4449 21.0873 17.4449C21.1081 17.5846 21.0838 17.7062 21.0144 17.8097Z" fill="#89898A"/>
</g>
</g>
</svg>
