<svg width="20" height="20" viewBox="0 0 20 20" fill="none" xmlns="http://www.w3.org/2000/svg">
<g id="airplane-svgrepo-com 1" clip-path="url(#clip0_231_5544)">
<g id="Page-1">
<g id="Icon-Set">
<path id="airplane" fill-rule="evenodd" clip-rule="evenodd" d="M18.6589 2.60196L14.0014 7.27634L16.8176 15.0232C16.9564 15.467 16.8701 16.017 16.6908 16.1963C16.1814 16.7063 15.8183 16.4638 15.6251 16.2501L11.122 10.1663L6.13701 15.1688L7.03451 18.5001C6.68014 18.1451 4.61263 15.3763 4.56326 15.3257C4.53013 15.2932 1.81014 13.2657 1.51701 12.9707L4.71138 13.8332L9.79077 8.84509L3.75014 4.37509C3.57701 4.22009 3.34889 3.76258 3.81514 3.29446C3.99514 3.11508 4.53889 3.06071 4.98139 3.20008L12.6945 5.99509L17.4151 1.35945C17.7451 1.02945 18.3908 1.06321 18.6801 1.35259C18.9689 1.64196 18.9889 2.27258 18.6589 2.60196ZM19.5045 0.512591C18.7258 -0.268659 17.357 -0.0855456 16.5739 0.699454L12.5883 4.6757L5.19575 1.91321C4.48763 1.73009 3.77451 1.49321 2.89639 2.37384C2.44826 2.82259 1.51701 3.75634 2.89639 5.13822L7.96513 9.28821L4.66702 12.5795L1.58951 11.8101C1.13326 11.6926 0.82577 11.7845 0.591395 12.0432C0.47327 12.1907 -0.383607 12.8257 0.213893 13.4245L3.792 16.2082L6.57576 19.7863C7.00826 20.2201 7.41013 19.9495 7.9595 19.4276C8.30763 19.0788 8.23263 18.8995 8.12764 18.3913L7.43263 15.3351L10.7083 12.0482L14.852 17.1182C16.2308 18.5001 17.1626 17.5657 17.6108 17.1182C18.4895 16.237 18.2533 15.5232 18.0701 14.8138L15.3308 7.40884L19.3001 3.4257C20.0833 2.64133 20.2839 1.29322 19.5045 0.512591Z" fill="#020617"/>
</g>
</g>
</g>
<defs>
<clipPath id="clip0_231_5544">
<rect width="20" height="20" fill="white"/>
</clipPath>
</defs>
</svg>
