<svg width="24" height="24" viewBox="0 0 24 24" fill="none" xmlns="http://www.w3.org/2000/svg">
<g id="sleeping 1">
<g id="Group">
<path id="Vector" opacity="0.982" fill-rule="evenodd" clip-rule="evenodd" d="M1.38159 4.85165C1.8723 4.88123 2.19261 5.13126 2.34253 5.60165C2.36597 8.17973 2.37378 10.7579 2.36597 13.336C9.41259 13.2906 16.4595 13.275 23.5066 13.2892C23.5144 14.9611 23.5066 16.633 23.4832 18.3048C23.1907 18.9961 22.6986 19.1914 22.0066 18.8907C21.799 18.7458 21.6662 18.5505 21.6082 18.3048C21.5847 17.6487 21.5769 16.9925 21.5847 16.336C15.1785 16.3412 8.77219 16.3568 2.36597 16.3829C2.37378 17.0393 2.36596 17.6956 2.34253 18.3517C2.19585 18.811 1.88335 19.061 1.40503 19.1017C0.926708 19.061 0.614206 18.811 0.467529 18.3517C0.436279 14.1016 0.436279 9.85167 0.467529 5.60165C0.614314 5.14945 0.919001 4.89947 1.38159 4.85165Z" fill="#421808"/>
</g>
<g id="Group_2">
<path id="Vector_2" opacity="0.99" fill-rule="evenodd" clip-rule="evenodd" d="M10.8042 7.10166C13.898 7.09383 16.9918 7.10166 20.0855 7.1251C21.7189 7.33688 22.8049 8.21968 23.3433 9.77354C23.4125 10.0035 23.4593 10.2379 23.4839 10.4767C23.5073 11.164 23.5152 11.8515 23.5073 12.5392C18.7261 12.5392 13.9448 12.5392 9.16358 12.5392C9.14211 11.1934 9.16555 9.84966 9.23389 8.50791C9.47221 7.7146 9.99566 7.24585 10.8042 7.10166Z" fill="#421808"/>
</g>
<g id="Group_3">
<path id="Vector_3" opacity="0.975" fill-rule="evenodd" clip-rule="evenodd" d="M5.46186 7.52343C6.65169 7.42616 7.50327 7.91052 8.01655 8.97655C8.38822 10.2371 8.02105 11.2137 6.91499 11.9062C5.61636 12.4056 4.5773 12.0852 3.7978 10.9453C3.2601 9.66866 3.54916 8.62959 4.66499 7.82812C4.92374 7.69265 5.18933 7.59107 5.46186 7.52343Z" fill="#421808"/>
</g>
</g>
</svg>
