<svg width="20" height="20" viewBox="0 0 20 20" fill="none" xmlns="http://www.w3.org/2000/svg">
<g id="train-svgrepo-com 1" clip-path="url(#clip0_231_5536)">
<g id="Group">
<path id="Vector" d="M7.23419 2.12853H12.3406C12.5169 2.12853 12.6597 1.98564 12.6597 1.80938C12.6597 1.63313 12.5169 1.49023 12.3406 1.49023H7.23419C7.05793 1.49023 6.91504 1.63313 6.91504 1.80938C6.91504 1.98564 7.05793 2.12853 7.23419 2.12853Z" fill="#020617"/>
<path id="Vector_2" d="M4.91545 10.9257C4.3875 10.9257 3.95801 11.3551 3.95801 11.8831C3.95801 12.4111 4.3875 12.8406 4.91545 12.8406C5.44341 12.8406 5.8729 12.4111 5.8729 11.8831C5.8729 11.3551 5.44341 10.9257 4.91545 10.9257ZM4.91545 12.2023C4.73945 12.2023 4.59631 12.0591 4.59631 11.8831C4.59631 11.7071 4.73945 11.564 4.91545 11.564C5.09145 11.564 5.2346 11.7071 5.2346 11.8831C5.2346 12.0591 5.09145 12.2023 4.91545 12.2023Z" fill="#020617"/>
<path id="Vector_3" d="M15.0846 10.9257C14.5567 10.9257 14.1272 11.3551 14.1272 11.8831C14.1272 12.4111 14.5567 12.8406 15.0846 12.8406C15.6126 12.8406 16.0421 12.4111 16.0421 11.8831C16.0421 11.3551 15.6126 10.9257 15.0846 10.9257ZM15.0846 12.2023C14.9086 12.2023 14.7655 12.0591 14.7655 11.8831C14.7655 11.7071 14.9086 11.564 15.0846 11.564C15.2606 11.564 15.4038 11.7071 15.4038 11.8831C15.4038 12.0591 15.2606 12.2023 15.0846 12.2023Z" fill="#020617"/>
<path id="Vector_4" d="M15.323 0H4.6771C3.57668 0 2.68144 0.895277 2.68144 1.99566V13.798C2.68144 13.9743 2.82434 14.1171 3.00059 14.1171H3.10698V16.2766C3.10698 16.9219 3.63191 17.4469 4.27719 17.4469H4.78327L4.05166 18.1785C4.05132 18.1788 2.77489 19.4552 2.77489 19.4552C2.68362 19.5465 2.6563 19.6838 2.7057 19.803C2.7551 19.9223 2.87149 20 3.00055 20H16.9995C17.1286 20 17.245 19.9223 17.2943 19.803C17.3437 19.6837 17.3165 19.5465 17.2252 19.4552L15.9486 18.1787C15.9486 18.1786 15.2168 17.4469 15.2168 17.4469H15.7229C16.3681 17.4469 16.8931 16.922 16.8931 16.2767V14.1172H16.9995C17.1758 14.1172 17.3186 13.9743 17.3186 13.798V1.99566C17.3187 0.895277 16.4234 0 15.323 0ZM4.6771 0.638298H15.323C16.0714 0.638298 16.6803 1.24723 16.6803 1.99566V2.98047H3.31974V1.99566C3.31974 1.24723 3.92868 0.638298 4.6771 0.638298ZM16.6804 13.4789H3.31974V3.61881H9.68089V9.58068H4.27719C4.10093 9.58068 3.95804 9.72357 3.95804 9.89983C3.95804 10.0761 4.10093 10.219 4.27719 10.219H15.7229C15.8992 10.219 16.0421 10.0761 16.0421 9.89983C16.0421 9.72357 15.8992 9.58068 15.7229 9.58068H10.3192V3.61881H16.6803V13.4789H16.6804ZM8.86711 14.1171H11.133V15.532H8.86711V14.1171ZM3.7711 19.3617L4.4094 18.7234H15.5907L16.229 19.3617H3.7711ZM14.9524 18.0851H5.0477L5.686 17.4468H14.3141L14.9524 18.0851ZM16.2548 16.2766C16.2548 16.57 16.0163 16.8086 15.7229 16.8086H4.27719C3.98387 16.8086 3.74527 16.57 3.74527 16.2766V14.1171H8.22881V15.8511C8.22881 16.0274 8.3717 16.1703 8.54796 16.1703H11.4521C11.6284 16.1703 11.7713 16.0274 11.7713 15.8511V14.1171H16.2548V16.2766H16.2548Z" fill="#020617"/>
</g>
</g>
<defs>
<clipPath id="clip0_231_5536">
<rect width="20" height="20" fill="white"/>
</clipPath>
</defs>
</svg>
